<?xml version="1.0" encoding="utf-8"?><!-- Uploaded to: SVG Repo, www.svgrepo.com, Generator: SVG Repo Mixer Tools -->
<svg version="1.1" id="Uploaded to svgrepo.com" xmlns="http://www.w3.org/2000/svg" xmlns:xlink="http://www.w3.org/1999/xlink" 
	 width="16px" height="16px" viewBox="0 0 32 32" xml:space="preserve">
<style type="text/css">
	.linesandangles_een{fill:#111918;}
</style>
<path class="linesandangles_een" d="M27.125,7L28,6l-2-2l-1,0.875V3h-2v2h1.857L23,6.625V5h-2v2h1.571l-6.96,6.062
	C14.393,12.387,12.992,12,11.5,12C6.806,12,3,15.806,3,20.5c0,4.694,3.806,8.5,8.5,8.5c4.694,0,8.5-3.806,8.5-8.5
	c0-1.492-0.387-2.893-1.062-4.111L25,9.429V11h2V9h-1.625L27,7.143V9h2V7H27.125z M11.5,27C7.916,27,5,24.084,5,20.5
	S7.916,14,11.5,14c0.884,0,1.723,0.186,2.492,0.507L10,18l4,4l3.493-3.992C17.814,18.777,18,19.616,18,20.5
	C18,24.084,15.084,27,11.5,27z M13.903,19.074l-0.977-0.977l7.814-6.837L13.903,19.074z"/>
</svg>