<?xml version="1.0" encoding="utf-8"?>
<!-- Generator: Adobe Illustrator 27.5.0, SVG Export Plug-In . SVG Version: 6.00 Build 0)  -->
<svg version="1.1" xmlns="http://www.w3.org/2000/svg" xmlns:xlink="http://www.w3.org/1999/xlink" x="0px" y="0px"
	 viewBox="0 0 500 500" style="enable-background:new 0 0 500 500;" xml:space="preserve">
<g id="BACKGROUND">
	<rect style="fill:#FFFFFF;" width="500" height="500"/>
</g>
<g id="OBJECTS">
	<circle style="opacity:0.45;fill:#80CEFF;" cx="250" cy="228.514" r="186.646"/>
	<g>
		<g>
			<path style="fill:#E2AC83;" d="M320.685,224.827c3.042,4.281,3.94,9.811,3.284,14.951c-0.46,3.689-1.766,7.218-3.297,10.585
				c-0.983,2.186-2.087,4.319-3.389,6.332c-3.615,5.747-8.476,10.964-14.824,13.647c-3.183,1.443-6.607,2.286-10.092,2.529
				c-3.435,0.294-6.919,0.237-10.321-0.35c-2.149-0.37-4.256-0.942-6.349-1.543c-1.892-0.482-3.991-1.339-5.869-0.382
				c-2.085,1.017-3.877,2.522-5.65,3.997c-3.389,2.864-6.395,6.162-8.893,9.831c-4.683,7.048-8.282,14.966-9.515,23.384
				c-0.572,3.31-0.363,6.317-4.808,6.001c-6.206-0.241-11.892-3.178-17.561-5.436c-4.281-1.939-8.766-3.956-12.078-7.373
				c-12.123,5.154-24.934,8.635-38.129,6.599c-2.44-0.416-17.418-2.746-23.839-5.378c-4.292,1.336-8.85,1.069-13.282,0.767
				c-0.908-0.036-1.817-0.019-2.725,0.017c-1.173,0.037-2.341,0.304-3.517,0.219c-0.99-0.094-1.821-0.969-1.793-1.973
				c-0.004-0.497,0.184-0.947,0.46-1.349c-3.062-1.32-4.028-4.149-1.713-6.253c-0.306-0.361-0.526-0.803-0.64-1.252
				c-0.266-1.104,0.312-2.317,1.236-2.934c1.069-0.68,3.601-1.597,6.069-2.041c-0.769-0.518-1.472-1.117-2.035-1.869
				c-0.944-1.172-0.643-2.922,0.811-3.497c1.373-0.461,2.858,0.113,4.125,0.753c0.554,0.058,1.106,0.28,1.593,0.55
				c0.858,0.45,1.835,1.197,2.409,2.107c0.161,0.124,0.321,0.249,0.482,0.374c0.68,0.521,1.33,1.094,2.084,1.507
				c1.151,0.509,2.44,0.57,3.676,0.702c3.418,0.247,6.849,0.327,10.273,0.425c1.027,0.028,2.055,0.022,3.083,0.03
				c-5.206-2.581-10.33-5.33-15.369-8.238c-0.558-0.016-1.116-0.051-1.673-0.098c-3.143-0.273-6.393-0.961-8.958-2.897
				c-0.942-0.704-1.901-1.483-2.474-2.53c-1.744-0.044-3.49-0.079-5.232-0.191c-1.987-0.158-5.511-0.126-5.291-2.935
				c0.598-2.339,3.732-2.438,5.708-2.773c7.018-0.518,14.007,1.002,20.917,2.041c5.226,0.712,10.414,1.667,15.294-0.534
				c-7.308-2.093-14.544-4.496-21.544-7.461c-7.513-3.282-15.036-6.849-21.468-12.001c-6.02-4.892-11.619-10.826-14.322-18.223
				c-2.026-6.216-1.679-12.93-0.257-19.237c0.992-4.882,2.302-9.696,3.975-14.388c1.863-5.276,3.648-10.577,5.573-15.815
				c2.111-5.393,4.428-10.71,6.944-15.925c0.301-0.574,0.663-1.171,1.282-1.436c0.568-0.205,1.037-0.082,1.363,0.221
				c0.432-0.028,0.91,0.119,1.373,0.507c0.361,0.366,0.844,0.577,1.287,0.824c10.057,4.701,23.564,2.415,33.518-1.662
				c1.45-0.442,2.78,1.211,1.951,2.518c-1.262,1.522-2.586,3.017-4.08,4.319c-2.125,1.835-6.126,4.355-9.768,5.585
				c0.371,0.097,0.745,0.188,1.119,0.271c9.661,2.238,18.951-0.336,27.768-4.327c2.468-1.164,4.863-2.479,7.151-3.966
				c1.69-1.044,3.272-2.252,4.959-3.296c1.253-0.788,2.986-0.058,2.972,1.513c-0.027,0.901-0.679,1.581-1.126,2.31
				c-0.903,1.397-1.739,2.84-2.499,4.321c-0.442,0.884-0.857,1.78-1.252,2.684c12.146-10.549,33.922-19.567,46.466-11.44
				c17.523,11.511,34.177,24.592,48.27,40.178c2.716,3.012,5.122,6.278,7.482,9.573c0.249,0.407,0.577,0.796,0.888,1.195
				c3.791-0.97,7.751-1.14,11.645-0.878C309.32,216.707,316.592,219.103,320.685,224.827z"/>
			<path style="fill:#E2AC83;" d="M395.282,337.798c1.109,2.94,6.059,18.91-0.124,17.829c-1.329-0.454-2.137-1.766-3.14-2.681
				c-1.363-1.397-2.782-2.741-4.233-4.049c-3.713-3.236-7.501-6.493-11.858-8.835c-7.629-3.768-15.622-0.679-23.237,1.37
				c-7.812,2.313-15.985,3.313-24.107,2.394c-8.165-0.958-16.156-3.074-24.008-5.459c-3.966-1.371-12.348-3.116-7.252-8.613
				c5.044-6.281,11.583-11.245,18.429-15.417c2.51-1.511,5.828-3.315,8.524-1.216c10.096,5.558,22.14,6.753,33.416,5.548
				c2.318-0.294,4.623-0.815,6.756-1.788c2.353-1.161,4.505-2.768,7.036-3.544c1.573-1.818,4.435-0.338,6.265,0.372
				C386.029,317.633,392.011,329.545,395.282,337.798z"/>
			<path style="fill:#E2AC83;" d="M398.905,250.355c4.842,1.568,3.095,4.862-1.308,4.964c-4.483,0.69-9.002,1.141-13.472,1.912
				c-3.494,0.613-7.405,1.427-9.272,4.788c-2.811,4.211-4.458,9.045-6.863,13.479c-3.432,6.453-7.905,12.416-13.558,17.089
				c-2.435,1.712-7.006,6.248-10.023,4.827c-5.992-3.292-15.082-17.078-16.661-23.713c-0.828,0.109-1.885-0.493-1.393-1.426
				c1.258-1.343,3.539-1.083,5.234-1.483c3.97-0.582,8.021-0.35,11.94,0.258c2.526-1.609,4.188-4.252,6.168-6.447
				c3.211-3.937,6.803-7.524,10.38-11.12c2.753-4.167,3.968-10.042,10.194-9.807C380.114,243.929,389.617,247.355,398.905,250.355z"
				/>
		</g>
		<g>
			<path style="fill:#FDF63A;" d="M346.624,298.825c0.658,2.093-1.767,2.857-3.314,3.346c-3.555,1.128-7.2,1.945-10.867,2.613
				c-2.989,0.563-5.994,1.014-9.011,1.377c0.216,0.65,0.271,1.327,0.063,1.987c-1.806,3.156-5.951,3.919-8.807,5.896
				c-3.475,1.896-6.446,4.514-9.211,7.319c-3.628,3.789-7.113,7.79-9.83,12.293c-1.372,3.156-2.916,4.83-6.527,3.404
				c-9.603-3.99-17.132-11.776-26.782-15.727c-18.57-6.625-14.516-1.096-8.137-19.069c3.098-9.782,5.946-20.317,14.307-26.98
				c2.737-2.246,6.013-3.844,9.478-4.577c1.554-0.291,2.356,1.292,1.952,2.432c5.965,1.828,12.335,2.203,18.519,1.515
				c7.709-0.933,15.21-3.594,23.028-3.544c0.787,0.017,1.581,0.094,2.304,0.425c1.627,0.833,2.556,3.059,3.503,4.562
				c3.574,6.023,7.609,11.851,12.53,16.858c1.617,1.577,3.252,3.19,5.194,4.367C345.679,297.673,346.376,298.07,346.624,298.825z"/>
		</g>
		<g>
			<path style="fill:#4079EA;" d="M149.079,145.081c-3.227,0.38-6.486,0.155-9.32-1.694c-1.391-0.644-2.186-1.425-2.543-2.273
				c1.072,1.368,2.567,2.4,4.152,3.091c1.19,0.495,2.479,0.634,3.754,0.707C146.438,145.001,147.759,145.044,149.079,145.081z"/>
			<path style="fill:#4079EA;" d="M292.052,218.306c-1.054,0.215-2.114-1.375-2.781-2.114c-2.149-2.61-4.119-5.362-6.268-7.974
				c-1.336-1.621-2.698-3.22-4.083-4.796c2.016,2.139,3.995,4.311,5.938,6.51c1.509,1.783,2.984,3.596,4.417,5.441
				C290.086,216.4,290.929,217.598,292.052,218.306z"/>
			<path style="fill:#4079EA;" d="M289.607,128.216c22.421,18.828,35.412,42.932,32.087,72.727
				c-0.267,5.358-0.15,18.154-7.438,18.329c-6.192-1.903-10.571-3.352-16.127-2.655c0.229-0.504,0.138-1.123-0.025-1.646
				c-0.93-2.849-2.629-5.372-4.222-7.888c-6.066-9.175-13.15-17.711-20.677-25.727c-14.673-15.483-32.845-27.389-52.642-35.258
				c-12.003-4.693-24.583-7.71-37.246-10.001c-11.985-2.182-24.295-3.745-36.465-2.355c-2.159,0.282-4.305,0.664-6.413,1.21
				c-0.222,0.059-0.445,0.119-0.666,0.185c0.516-0.48,1.065-0.922,1.609-1.311C182.421,101.071,247.669,92.891,289.607,128.216z"/>
			<path style="fill:#FDF63A;" d="M298.104,214.97c0.163,0.523,0.254,1.142,0.025,1.646c-0.051,0.112-0.118,0.219-0.203,0.318
				c-0.135,0.512-0.422,0.975-0.882,1.296c-0.4,0.28-0.853,0.413-1.325,0.505c-0.679,0.14-1.366,0.237-2.058,0.158
				c-0.6-0.072-1.13-0.285-1.609-0.587c-1.123-0.708-1.966-1.906-2.778-2.932c-1.433-1.845-2.908-3.658-4.417-5.442
				c-1.943-2.199-3.922-4.371-5.938-6.51c-8.649-9.176-17.986-17.742-28.134-25.216c-13.07-9.345-27.072-17.628-42.14-23.266
				c-8.118-2.852-16.731-5.163-25.082-7.01c-11.128-2.587-22.552-2.751-33.918-2.834c-0.189-0.005-0.377-0.01-0.566-0.015
				c-0.001,0-0.001,0-0.001,0c-1.32-0.036-2.641-0.079-3.958-0.169c-1.275-0.073-2.564-0.212-3.754-0.707
				c-1.585-0.691-3.079-1.723-4.152-3.091c-0.052-0.066-0.103-0.133-0.153-0.201c-1.209-1.606-0.931-4.013,0.916-5.032
				c0.557-0.338,1.171-0.561,1.794-0.744c0.221-0.066,0.444-0.126,0.666-0.185c2.108-0.546,4.255-0.928,6.413-1.21
				c12.171-1.391,24.48,0.173,36.465,2.355c12.663,2.291,25.242,5.307,37.246,10.001c19.796,7.869,37.969,19.775,52.642,35.258
				c7.527,8.016,14.611,16.552,20.677,25.727C295.475,209.598,297.174,212.121,298.104,214.97z"/>
			<path style="fill:#4079EA;" d="M298.281,328.478c-14.298-8.991-29.531-17.431-46.099-21.29c-0.992,2.409-1.872,4.951-3.477,7.031
				c-1.7,1.963-4.292,0.031-3.454-2.276c1.107-3.549,2.843-7.081,3.906-10.611c0.361-2.939,1.271-5.76,2.64-8.409
				c2.78-8.828,8.108-16.853,16.329-21.429c1.12-0.526,2.462-1.472,3.72-0.921c0.601,0.327,0.648,1.132,0.24,1.638
				c-2.38,2.43-5.907,3.824-7.659,6.803c-5.464,6.892-7.566,15.651-10.612,23.747c6.799,3.217,14.215,4.957,21.05,8.115
				c6.392,2.966,12.711,6.155,18.708,9.863c2.186,1.368,4.292,2.861,6.288,4.495c0.433,0.309,0.879,0.679,0.996,1.225
				C301.295,327.911,299.584,329.275,298.281,328.478z"/>
		</g>
		<g>
			<path style="fill:#F2641A;" d="M285.934,212.572c0.35,1.013-0.21,2.109-1.095,2.633c-0.497,0.309-1.027,0.569-1.507,0.907
				c-1.849,1.265-3.474,2.821-4.961,4.489c-4.276,4.879-7.577,10.482-10.973,15.979c-0.946,1.368-1.989,3.027-3.73,3.383
				c-1.096,0.178-2.22-0.452-2.644-1.496c-0.325-0.793-0.348-1.699-0.37-2.545c-0.043-1.658,0.139-3.313,0.33-4.957
				c0.622-5.115,1.273-10.395,1.607-15.466c0.477-7.97,0.317-16.04-1.183-23.9c-0.216-1.127-0.554-2.236-0.65-3.382
				c-0.043-0.647,0.32-1.373,1.03-1.452c1.214-0.087,1.823,1.228,2.237,2.169c1.069,0.09,1.615,1.103,2.262,1.823
				c2.565,3.014,5.168,5.725,7.911,8.54c3.104,3.206,6.241,6.382,9.247,9.68C284.389,210.08,285.457,211.172,285.934,212.572z"/>
			<path style="fill:#F2641A;" d="M123.204,177.061c2.049-0.326,2.681,1.752,0.904,2.757c-0.01,0.509-0.253,1.045-0.67,1.352
				c-0.584,0.427-1.215,0.801-1.855,1.139c-0.953,0.492-2.028,1.019-3.127,0.802c-1.193-0.234-1.814-1.69-1.229-2.737
				C117.984,178.84,121.54,177.277,123.204,177.061z"/>
			<path style="fill:#F2641A;" d="M223.924,208.213c-1.856-1.154-3.168-2.994-4.423-4.743c-0.787-1.14-1.487-2.338-2.094-3.583
				c-0.286-0.511-0.454-1.092-0.728-1.599c-0.732-0.862-0.317-2.417,0.669-2.896c0.821-0.376,1.605,0.26,2.236,0.726
				c0.679,0.535,1.322,1.113,1.946,1.71c2.136,2.033,5.183,5.581,5.487,8.587C227.092,208.078,225.342,209.079,223.924,208.213z"/>
			<path style="fill:#F2641A;" d="M214.251,157.328c1.434,0.723,13.888,5.774,8.439,6.371c-0.525-0.135-1.048-0.28-1.567-0.433
				c-0.169,0.167-0.384,0.303-0.647,0.39c-0.433,0.132-0.877,0.183-1.327,0.216c-3.524,0.203-6.987,0.953-10.4,1.818
				c-5.446,1.383-10.509,3.901-15.043,7.193c-0.667,0.475-1.324,0.965-1.975,1.463c-0.326,0.25-0.649,0.505-0.981,0.747
				c-0.03,0.022-0.06,0.044-0.09,0.066c-0.561,0.896-1.223,1.649-2.098,0.853c-0.546-1.449,1.13-3.634,1.725-4.983
				c1.363-2.334,2.979-4.523,4.799-6.526c-7.421,3.762-14.662,7.938-22.511,10.751c-5.7,2.058-11.746,4.055-17.879,3.578
				c-0.14-0.005-0.298-0.021-0.464-0.046c-0.808,0.35-1.64,0.668-2.526,0.702c-0.645,0-1.366-0.216-1.423-0.95
				c0.024-1.17,1.529-1.63,2.359-2.167c2.812-1.685,5.355-3.85,7.371-6.44c1.219-1.58,2.272-3.276,3.167-5.055
				c-0.995,0.302-1.994,0.592-2.993,0.877c-7.277,1.939-14.851,3.445-22.409,2.698c-10.121-1.005-18.221-5.396-24.814-13.098
				c-2.42-2.832-4.59-5.875-6.484-9.081c-1.308-2.208-2.461-4.52-3.19-6.987c-0.331-1.255-1.03-3.572,0.051-4.567
				c0.603-0.53,1.59-0.385,1.998,0.312c0.665,1.39,1.732,2.53,2.8,3.623c3.009,2.878,6.314,5.544,10.21,7.11
				c1.658,0.708,3.373,1.267,5.105,1.759c0.894,0.304,2.449,0.602,3.595,1.163c-0.18-0.273-0.355-0.548-0.528-0.826
				c-2.107-3.306-3.617-6.944-4.813-10.666c-1.101-3.608-2.279-7.255-2.578-11.035c-0.044-1.045-0.102-2.121,0.158-3.142
				c0.254-0.953,1.241-1.615,2.221-1.41c0.956,0.145,1.431,1.06,1.801,1.851c0.228,0.451,0.47,0.895,0.722,1.334
				c0.754,1.282,1.597,2.507,2.499,3.689c4.351,5.459,9.9,9.911,15.895,13.446c2.966,1.77,6.077,3.274,9.251,4.629
				c0.11,0.051,0.223,0.1,0.335,0.148c-2.664-7.355-1.862-15.021,1.002-24.268c0.772-1.751,1.129-4.029,2.697-5.238
				c0.839-0.437,1.992-0.065,2.391,0.801c0.541,1.119-0.297,2.239-0.438,3.356c-0.581,8.193,3.682,16.373,9.979,21.464
				c2.74,2.252,6.282,2.973,9.679,3.618c5.223,1.028,10.376,2.364,15.534,3.67C200.169,151.925,207.347,154.3,214.251,157.328z"/>
		</g>
		<g>
			<path style="fill:#7B192F;" d="M321.626,195.737c2.504,0.135,4.033,3.707,1.917,5.335c-1.804,1.234-4.147,1.202-6.23,1.607
				c-24.676,3.032-49.029,8.77-72.248,17.673c-5.35,2.087-10.64,4.331-15.822,6.806c-1.797,0.842-4.641,2.63-6.164,0.561
				c-0.444-0.763-0.241-1.781,0.407-2.363c-2.885-1.512,3.209-2.893,4.188-3.494c4.003-1.659,7.903-3.555,11.708-5.622
				c24.674-12.282,37.269-38.389,56.063-57.292c4.022-3.678,10.391-10.864,16.28-9.585c2.213,0.6,2.925,3.175,1.384,4.871
				c-4.711,5.499-10.264,10.235-15.083,15.648c-11.493,12.161-21.572,25.637-34.128,36.783
				C282.665,201.276,301.94,195.465,321.626,195.737z"/>
			<path style="fill:#7B192F;" d="M164.329,220.296c-0.698-0.497-1.357-1.048-2.073-1.519c-0.847-0.179-1.759-0.73-2.484-1.029
				c-4.373-2.004-8.93-3.665-13.686-4.47c-1.986-0.325-3.983-0.533-5.994-0.613c-1.54-0.148-3.136,0.268-4.643-0.1
				c-2.294-1.036-1.069-3.707,1.128-3.834c6.755-0.677,13.77,0.008,20.116,2.508c2.372,1.043,6.97,2.766,7.954,5.252
				c0.911,0.849,2.164,1.842,2.118,3.206C166.648,220.973,165.118,221.016,164.329,220.296z"/>
		</g>
		<g>
			<path style="fill:#162631;" d="M193.37,241.687c-8.71-2.193-11.38-13.271-5.158-19.528c6.442-6.368,17.71-3.872,20.235,5.001
				c2.564,7.726-4.422,14.984-11.894,14.984C195.493,242.145,194.424,241.999,193.37,241.687z"/>
			<path style="fill:#162631;" d="M113.365,214.895c-6.427-0.773-9.409-8.638-4.436-13.53c4.007-3.755,10.561-2.768,12.915,2.521
				c2.455,5.625-2.4,11.06-7.605,11.06C113.948,214.947,113.657,214.93,113.365,214.895z"/>
		</g>
		<g style="opacity:0.4975;">
			<g>
				<path style="fill:#4079EA;" d="M219.275,225.154c7.75,9.062,2.367,22.255-9.884,21.96c-11.617-0.434-23.006-5.227-32.04-12.441
					c-13.914-11.813-5.931-21.786,10.106-21.613c7.189-0.103,14.558,0.946,20.981,4.328
					C212.685,218.857,216.453,221.676,219.275,225.154z"/>
				<path style="fill:#4079EA;" d="M129.787,205.238c3.192,3.368,2.479,8.449-1.522,10.807c-3.213,1.937-7.203,1.872-10.8,1.345
					c-5.618-1.001-11.793-3.607-15.441-8.134c-2.42-2.923-2.727-7.705,0.763-9.934c5.33-2.907,12.367-1.682,17.799,0.411
					c1.564,0.581,2.979,1.472,4.464,2.215C126.844,202.681,128.52,203.751,129.787,205.238z"/>
			</g>
		</g>
		<g style="opacity:0.5588;">
			<g>
				<path style="fill:#FFFFFF;" d="M182.933,240.697c-0.917-0.23-1.442-1.343-1.023-2.192c-0.849-1.691,1.262-2.372,2.379-3.081
					c5.579-3.067,11.205-6.048,16.817-9.053c4.285-2.237,8.547-4.587,12.969-6.534c0.588-0.201,1.335-0.618,1.902-0.181
					c1.447-0.627,2.809,1.042,1.835,2.309c-0.542,0.587-1.356,0.826-2.018,1.252c-0.684,0.377-1.368,0.754-2.057,1.124
					c-2.021,1.062-4.03,2.146-6.043,3.223c-7.507,4.137-15.046,8.218-22.512,12.428C184.51,240.395,183.754,240.922,182.933,240.697
					z"/>
				<path style="fill:#FFFFFF;" d="M187.275,242.028c-0.111-0.196-0.066-0.477,0.127-0.607c0.785-0.532,1.57-1.064,2.347-1.57
					c2.254-1.476,4.654-2.705,6.994-4.035c6.097-3.485,12.238-6.897,18.572-9.936c0.924-0.442,1.847-0.896,2.805-1.263
					c0.451-0.143,0.965-0.439,1.431-0.215c0.212,0.114,0.283,0.393,0.196,0.606c-0.14,0.298-0.463,0.446-0.731,0.61
					c-0.899,0.51-1.812,0.995-2.72,1.487c-6.155,3.331-12.178,6.902-18.345,10.21c-2.414,1.287-4.801,2.633-7.304,3.743
					c-0.922,0.407-1.855,0.787-2.785,1.173C187.649,242.321,187.389,242.232,187.275,242.028z"/>
				<path style="fill:#FFFFFF;" d="M106.299,214.563c-0.003-0.003-0.006-0.006-0.008-0.01c-1.352,0.684-2.584-0.745-1.536-1.914
					c1.078-1.145,2.375-2.081,3.605-3.052c3.738-2.921,7.524-5.782,11.348-8.591c0.641-0.404,3.477-2.764,3.737-1.307
					c1.071-0.731,2.395,0.518,1.681,1.618c-0.464,0.567-1.179,0.873-1.766,1.296c-0.808,0.551-1.6,1.124-2.38,1.715
					c-1.966,1.504-4.106,3.146-6.025,4.634c-1.492,1.163-2.943,2.262-4.362,3.371c-0.541,0.42-1.083,0.84-1.626,1.258
					c-0.532,0.409-1.058,0.84-1.64,1.176C106.996,214.948,106.544,214.839,106.299,214.563z"/>
				<path style="fill:#FFFFFF;" d="M108.206,215.936c-0.33-0.4,0.293-0.703,0.515-0.915c0.642-0.5,1.293-0.991,1.943-1.483
					c3.303-2.477,6.603-4.962,9.954-7.374c1.346-0.967,2.71-1.907,4.069-2.855c0.918-0.64,1.827-1.3,2.78-1.864
					c0.183-0.107,0.418-0.27,0.64-0.191c0.115,0.042,0.212,0.148,0.217,0.274c0.01,0.254-0.205,0.427-0.381,0.578
					c-0.22,0.19-0.457,0.37-0.686,0.548c-2.599,2.015-5.284,3.914-7.966,5.817c-2.675,1.893-5.316,3.834-7.978,5.745
					c-0.632,0.449-1.269,0.889-1.908,1.327C109.06,215.708,108.552,216.296,108.206,215.936z"/>
			</g>
		</g>
		<g style="opacity:0.1642;">
			<g>
				<path style="fill:#CF2046;" d="M322.32,200.028c0.229,0.737-3.96,1.018-4.55,1.123c-4.351,0.48-8.711,0.917-13.033,1.624
					c-4.669,0.793-9.297,1.798-13.931,2.769c-10.114,1.999-20.206,4.216-29.963,7.592c-8.561,2.905-16.92,6.362-25.355,9.602
					c-0.701,0.262-1.398,0.535-2.095,0.809c-0.809,0.318-1.606,0.669-2.423,0.971c-0.203,0.109-0.497,0.106-0.609-0.133
					c-0.093-0.186-0.014-0.411,0.168-0.506c1.463-0.737,2.967-1.388,4.431-2.124c13.383-6.468,27.411-11.709,41.846-15.286
					c9.204-2.156,18.455-4.135,27.795-5.612c4.696-0.768,9.337-1.314,14.086-1.329c1.048-0.003,2.102-0.011,3.141,0.141
					C322.031,199.701,322.303,199.783,322.32,200.028z"/>
				<path style="fill:#CF2046;" d="M310.587,154.258c0.105,0.156,0.074,0.359-0.06,0.487c-0.34,0.326-0.684,0.646-1.03,0.965
					c-0.744,0.699-1.475,1.413-2.234,2.096c-3.116,2.77-6.255,5.523-9.171,8.506c-3.014,3.118-5.734,6.504-8.639,9.721
					c-3.68,4.041-7.182,8.238-10.892,12.252c-2.902,3.176-5.887,6.284-9.041,9.21c-1.116,1.013-2.242,2.027-3.509,2.848
					c-0.082,0.053-0.169,0.098-0.246,0.158c-0.056,0.052-0.141,0.06-0.201,0.01c-0.068-0.059-0.069-0.175,0.006-0.229
					c0.559-0.743,1.175-1.443,1.813-2.12c2.152-2.34,4.365-4.625,6.497-6.982c5.693-6.599,11.505-13.092,17.21-19.68
					c4.194-4.981,8.768-9.634,13.822-13.747c1.185-1.018,2.43-1.968,3.763-2.784c0.397-0.25,0.798-0.495,1.212-0.717
					C310.099,154.111,310.413,153.994,310.587,154.258z"/>
				<path style="fill:#7B192F;" d="M321.299,191.515c0.746,1.485-0.221,2.978-1.737,3.381c-1.374,0.376-2.825,0.255-4.237,0.275
					c-8.53-0.146-16.965,1.717-25.142,3.949c-2.014,0.551-4.005,1.094-5.992,1.719c-2.109,0.659-4.365,1.527-6.561,0.735
					c-0.788-0.243-1.388-0.547-1.831-0.897c-0.243,1.137-1.585,1.768-2.44,2.453c-0.874,0.766-2.266,1.406-3.135,0.266
					c-0.953-1.225,0.208-2.461,1.319-3.01c0.79-0.542,2.258-1.385,3.283-1.176c-0.454-1.947,1.414-4.454,2.982-6.292
					c4.04-4.719,8.465-9.092,12.787-13.549c6.249-6.305,11.97-13.12,18.335-19.311c0.727-0.689,1.469-1.363,2.226-2.02
					c0.391-0.348,0.798-0.74,1.328-0.842c0.029-0.463,0.25-1.113,0.821-1.028c0.704,0.21,0.77,1.149,0.982,1.743
					c0.729,2.473,1.12,5.022,1.448,7.574c0.589,4.749,1.343,9.473,2.115,14.195c0.462,2.78,1.026,5.547,1.921,8.223
					C320.225,189.199,320.652,190.359,321.299,191.515z"/>
				<path style="fill:#7B192F;" d="M303.542,147.018c0.728,0.989,1.525,2.177,1.072,3.451c-0.208,0.645-0.657,1.195-1.083,1.708
					c-0.911,1.074-1.876,2.097-2.803,3.156c-3.013,3.419-6.005,6.858-9.164,10.144c-3.545,3.79-7.214,7.209-10.27,11.354
					c-0.956,1.342-1.851,2.729-2.865,4.031c-1.388,1.808-2.809,3.591-4.174,5.415c-0.725,1.035-1.635,1.932-3.001,1.814
					c-1.534-0.138-2.853-1.071-4.081-1.93c-1.151-0.837-2.249-1.74-3.346-2.646c-3.467-2.858-6.909-5.756-10.546-8.396
					c-22.117-16.046-47.664-27.924-74.754-32.241c-2.584-0.41-5.181-0.714-7.777-1.033c-2.508-0.32-5.057-0.546-7.486-1.275
					c-3.812-1.239-5.122-5.549-5.697-9.126c-0.184-0.928-0.326-1.87-0.386-2.816c-0.067-0.879-0.146-2.024,0.742-2.516
					c1.027-0.566,2.031,0.317,2.91,0.766c1.602,0.878,3.324,1.514,5.101,1.929c7.691,1.711,15.639,1.38,23.449,2.1
					c8.954,0.686,17.875,2.002,26.619,4.059c8.851,2.193,17.55,5.046,25.898,8.725c7.253,3.187,14.414,6.732,22.156,8.6
					c4.415,0.947,9.111,1.801,13.556,0.613c2.935-1.018,5.912-2.686,7.504-5.449c2.376-4.48,1.301-10.052-1.257-14.223
					c-2.156-3.193-4.978-5.92-8.079-8.191c-1.028-0.738-2.091-1.426-3.161-2.102c-0.852-0.617-3.264-1.773-3.376-2.819
					c-0.062-0.426,0.223-0.836,0.615-0.99c0.632-0.22,1.278,0.201,1.848,0.437c1.223,0.566,2.402,1.245,3.542,1.962
					c3.798,2.436,7.471,5.072,10.969,7.922c4.882,3.956,9.354,8.398,13.653,12.973C301.18,143.885,302.411,145.413,303.542,147.018z
					"/>
				<path style="fill:#7B192F;" d="M282.923,209.939c2.27-0.508,3.566,0.946,3.051,3.174c-0.555,2.385-3.03,2.589-4.857,3.582
					c-2.531,1.229-4.906,2.82-6.756,4.96c-1.794,2.061-3.35,4.311-4.804,6.621c-0.456,0.722-0.898,1.453-1.376,2.161
					c-0.687,0.984-1.718,2.721-3.122,1.944c-0.875-0.57-0.717-1.749-0.699-2.654c0.031-0.775,0.061-1.55,0.094-2.326
					c0.113-2.39,0.305-4.777,0.318-7.171c0.012-1.174-0.026-2.348-0.079-3.52c-0.08-0.609,0.027-1.49,0.839-1.398
					c0.479-0.469,1.178-0.516,1.797-0.677c2.073-0.507,4.11-1.149,6.148-1.781C276.641,211.934,279.706,210.664,282.923,209.939z"/>
				<path style="fill:#7B192F;" d="M321.301,203.465c0.62,0.765-0.046,2.438-0.225,3.327c-0.379,1.453-1.022,2.81-1.804,4.084
					c-0.106,0.734-0.572,1.368-0.962,1.982c-0.911,1.313-1.966,2.525-3.098,3.65c-1.469,1.506-2.812,2.432-5.006,2.305
					c-1.601-0.049-3.187-0.316-4.757-0.617c-1.304-0.285-2.622-0.533-3.963-0.479c-1.484,0.025-2.968,0.116-4.45,0.204
					c-1.526,0.094-3.223,0.144-4.461-0.898c-1.251-0.94-1.988-2.37-2.703-3.724c-0.432-0.678-1.165-1.1-1.84-1.505
					c-0.646-0.397-1.424-0.532-2.03-0.994c-0.526-0.447-0.755-1.179-0.544-1.842c0.337-1.074,1.529-1.334,2.499-1.542
					c2.063-0.442,4.144-0.802,6.222-1.171c7.614-1.305,15.27-2.558,23.007-2.788c0.62-0.015,1.24-0.021,1.861-0.018
					c0.374-0.008,0.755,0.036,1.096,0.198C320.422,203.272,320.945,203.102,321.301,203.465z"/>
				<path style="fill:#7B192F;" d="M265.491,190.936c0.654,0.267,1.043,1.002,0.949,1.699c-0.098,0.962-1.027,1.439-1.803,1.815
					c-1.327,0.572-3.053,0.146-3.557-1.317c-0.277-0.803-0.316-1.658-0.42-2.495c-0.053-0.951-0.345-1.959-0.011-2.882
					c0.375-0.947,1.59-1.355,2.464-0.822c0.589,0.34,0.926,0.964,1.225,1.551C264.729,189.299,265.174,190.085,265.491,190.936z"/>
				<path style="fill:#7B192F;" d="M260.038,184.951c1.159,1.124,0.438,3.063-1.278,2.735c-6.339-1.716-11.627-5.762-17.255-8.969
					c-6.251-3.443-13.176-5.684-20.247-6.626c-2.161-0.28-4.339-0.334-6.512-0.231c-0.965,0.15-1.929,0.311-2.898,0.44
					c-5.325,0.635-10.486,2.266-15.352,4.494c-2.516,1.161-4.984,2.423-7.448,3.691c-1.098,0.479-3.746,2.108-4.774,1.432
					c-0.883-0.536-0.487-1.671-0.335-2.49c0.175-0.846,0.434-1.669,0.738-2.476c-2.285,1.383-4.746,2.461-7.265,3.344
					c-3.784,1.35-7.658,2.481-11.639,3.063c-6.626,0.904-18.958,1.287-24.545-2.527c-2.719-1.637-3.849-4.73-0.376-6.303
					c-3.771-0.481-7.656-0.85-11.154-2.444c-2.469-1.125-4.833-2.715-6.313-5.037c-0.34-0.525-1.216-2.095-0.204-2.295
					c0.502,0.056,0.818,0.555,1.184,0.857c0.569,0.551,1.149,1.092,1.749,1.606c0.18-0.107,0.392-0.16,0.599-0.126
					c0.53,0.066,1,0.316,1.47,0.553c0.723,0.334,1.463,0.624,2.219,0.873c8.145,2.317,16.773,1.04,24.871-0.758
					c0.984-0.223,1.965-0.465,2.944-0.712c0.833-0.151,2.166-0.726,2.863-0.101c0.218,0.208,0.328,0.533,0.245,0.827
					c-0.009,0.032-0.02,0.063-0.032,0.093c0.055,0.285-0.004,0.604-0.232,0.908c-1.136,1.354-2.469,2.52-3.838,3.633
					c-2.694,2.173-5.477,4.35-8.733,5.611c1.885,0.684,3.871,0.984,5.863,1.142c3.42,0.272,6.879,0.253,10.263-0.36
					c8.651-1.622,16.853-5.193,24.182-10.035c0.638-0.364,1.336-1.033,2.12-0.721c0.982,0.505,0.652,1.471,0.088,2.177
					c-0.912,1.24-1.886,2.436-2.866,3.623c0.07,0.09,0.135,0.194,0.194,0.313c0.365,1.042-0.242,2.113-0.561,3.094
					c0.426-0.232,0.842-0.483,1.26-0.732c0.462-0.276,0.925-0.548,1.393-0.814c0.05-0.234,0.176-0.449,0.378-0.594
					c0.915-0.649,1.863-1.25,2.806-1.859c5.433-3.413,11.346-6.076,17.53-7.797c4.023-1.002,8.324-2.41,12.551-2.426
					c-3.227-0.294-6.481-0.679-9.733-0.487c-4.389,0.298-8.721,1.441-12.701,3.311c-1.25,0.561-2.392,1.32-3.603,1.947
					c-0.121,0.117-0.312,0.127-0.433-0.001c-0.132-0.136-0.102-0.377,0.059-0.473c0.169-0.203,0.354-0.381,0.558-0.553
					c0.958-0.817,1.984-1.549,3.044-2.227c4.508-2.72,9.702-4.367,14.968-4.609c-2.642-1.075-5.285-2.154-7.938-3.202
					c-0.223-0.062-0.447-0.121-0.672-0.178c-2.824-0.885-5.655-1.755-8.569-2.285c-4.286-0.822-8.465-1.059-12.791-1.032
					c-3.042,0.041-6.097,0.101-9.116,0.482c-0.13,0.06-0.295-0.025-0.321-0.165c-0.034-0.172,0.124-0.292,0.284-0.281
					c1.206-0.28,2.411-0.59,3.638-0.781c4.372-0.71,8.905-1.057,13.382-0.811c-2.558-0.777-5.142-1.471-7.76-2.052
					c-2.962-0.654-6.014-0.677-8.993-1.201c-1.02-0.183-2.029-0.438-2.976-0.865c-0.296-0.092-0.598-0.159-0.9-0.23
					c-0.417-0.097-0.66-0.564-0.551-0.964c0.289-0.869,1.104-0.477,1.761-0.417c0.861-0.015,1.715-0.143,2.576-0.168
					c3.965-0.044,7.963,0.236,11.837,1.114c6.758,1.643,13.32,4.038,19.79,6.571c3.947,1.604,7.793,3.439,11.686,5.164
					c1.628,0.76,3.269,1.496,4.875,2.301c0.99,0.443,1.083,1.797,0.049,2.142c0.669,0.052,1.337,0.144,1.999,0.285
					c2.512,0.632,4.813,1.882,7.014,3.218c4.501,2.796,8.893,5.771,13.275,8.751c3.507,2.426,7.001,4.882,10.333,7.548
					C258.55,183.535,259.357,184.18,260.038,184.951z M185.525,180.141c0.092-0.042,0.183-0.085,0.275-0.129
					c-0.07-0.042-0.138-0.089-0.202-0.141C185.574,179.962,185.549,180.051,185.525,180.141z"/>
				<path style="fill:#7B192F;" d="M202.789,156.055c0.31,0.182,0.327,0.684-0.008,0.848c0.001,0.001,0.002,0.001,0.003,0.002
					c-0.402,0.197-0.854,0.277-1.279,0.419c-0.262,0.15-0.501,0.339-0.786,0.452c-5.402,2.604-10.577,5.64-15.669,8.802
					c-4.858,2.929-9.672,6.059-15.041,7.982c-2.233,0.8-4.499,1.452-6.822,1.919c-2.347,0.46-4.691,1.098-7.095,1.132
					c-0.563-0.031-1.245-0.055-1.632-0.524c-0.251-0.33-0.219-0.799,0.043-1.111c0.459-0.498,1.109-0.779,1.616-1.227
					c0.734-0.715,1.454-1.449,2.135-2.215c1.095-1.27,2.15-2.578,3.173-3.906c1.258-1.66,2.376-3.437,3.812-4.956
					c-3.705,1.399-7.656,1.978-11.572,2.428c-6.046,0.711-11.832,0.755-17.609-0.598c-2.012-0.382-3.995-0.913-5.915-1.625
					c-5-1.983-9.828-4.713-13.521-8.681c-1.888-1.933-3.656-4.068-4.768-6.545c-0.396-0.659-0.78-1.33-1.037-2.053
					c-0.049-0.084-0.035-0.197,0.061-0.251c0.095-0.053,0.206-0.007,0.251,0.083c0.266,0.285,0.531,0.572,0.794,0.859
					c0.148-0.012,0.249,0.143,0.338,0.257c0.814,0.999,1.706,1.928,2.66,2.794c3.156,2.855,6.77,5.05,10.528,6.949
					c2.762,1.37,5.635,2.546,8.622,3.329c0.954,0.234,1.916,0.445,2.882,0.635c0.07,0.005,0.139,0.008,0.208,0.011
					c6.577,0.275,13.174-0.418,19.637-1.622c2.225-0.42,4.242-0.841,6.431-1.301c1.831-0.375,3.682-0.775,5.559-0.79
					c1.412-0.004,3.026,0.431,3.751,1.749c0.453,0.817,0.518,1.778,0.629,2.688c0.117,1.373,0.115,2.818,1.881,2.877
					c1.127,0.041,2.218-0.321,3.28-0.657c5.27-1.738,10.245-4.245,15.485-6.059c2.676-0.867,5.397-1.63,8.169-2.126
					C202.23,155.979,202.561,155.907,202.789,156.055z"/>
				<path style="fill:#7B192F;" d="M150.107,156.789c0.408,0.063,0.35,0.705-0.1,0.654c-7.464-0.285-15.341-2.835-20.233-8.743
					c-3.14-3.654-5.558-7.984-6.682-12.686c-0.087-0.409-0.77-3.493-0.22-3.225c0.353,0.295,0.531,0.755,0.795,1.126
					c1.249,1.952,2.337,4.001,3.557,5.97c1.322,2.207,2.647,4.424,4.286,6.415c1.264,1.498,2.686,2.877,4.152,4.072
					c1.157,0.928,2.403,1.735,3.713,2.428c3.249,1.7,6.488,2.973,9.987,3.867C149.609,156.719,149.857,156.757,150.107,156.789z"/>
				<path style="fill:#7B192F;" d="M159.982,147.314c0.378,0.212,0.273,0.782-0.144,0.876c-0.984,0.194-2.035,0.228-3.03,0.092
					c-4.341-1.202-4.872-6.246-5.054-10.057c-0.02-1.169,0.125-2.333,0.261-3.492c0.007-0.053,0.014-0.106,0.021-0.159
					c0.092-2.065,0.417-4.135,1.208-6.04c0.025-0.053,0.055-0.118,0.089-0.182c0.004-0.018,0.007-0.036,0.011-0.053
					c-0.022-0.173,0.146-0.324,0.32-0.273c0.051,0.015,0.092,0.044,0.121,0.081c0.002,0.001,0.003,0.002,0.005,0.003
					c0.204,0.118,0.124,0.378,0.076,0.561c-0.038,0.142-0.076,0.284-0.113,0.426c-0.003,0.297,0.012,0.595,0.019,0.891
					c0.128,3.533-0.016,7.151,1.128,10.546c0.839,2.525,2.369,4.907,4.507,6.514C159.596,147.142,159.799,147.208,159.982,147.314z"
					/>
				<path style="fill:#7B192F;" d="M314.846,227.605c0.611,0.55,0.54,1.655-0.234,2.026c-0.766,0.374-1.583-0.016-2.339-0.222
					c-3.956-1.217-8.081-1.995-12.23-1.997c-2.71,0.07-5.459,0.422-7.96,1.521c-2.74,1.298-5.129,3.232-7.243,5.386
					c-4.315,4.398-7.288,10.433-7.107,16.681c2.383-2.484,4.489-5.249,7.135-7.478c3.928-3.377,8.66-6.014,13.803-6.904
					c4.09-0.729,8.448-0.111,12.096,1.907c0.771,0.432,1.52,0.895,2.23,1.423c0.538,0.4,1.125,0.805,1.435,1.42
					c0.409,0.786,0.177,1.794-0.547,2.306c-0.507,0.389-1.17,0.423-1.782,0.426c-2.936-0.153-5.827-0.814-8.768-0.954
					c-2.469-0.143-4.96-0.026-7.403,0.359c3.32,0.936,6.298,2.878,8.555,5.479c0.439,0.489,0.839,1.012,1.29,1.49
					c0.498,0.34,0.928,0.836,0.977,1.46c0.141,1.145-1.093,2.137-2.18,1.737c-0.398-0.141-0.713-0.406-1.008-0.695
					c-0.449-0.321-0.92-0.607-1.399-0.882c-1.322-0.736-2.74-1.274-4.202-1.65c-4.488-1.132-8.755-0.969-12.753,1.551
					c-1.126,0.695-2.201,1.477-3.238,2.299c-0.362,0.328-0.83,0.602-1.049,1.05c-0.072,1.371,1.403,2.412,2.349,3.21
					c0.997,0.756,2.116,1.32,3.275,1.784c2.633,1.004,5.408,1.796,8.25,1.727c2.622-0.025,5.257-0.903,7.686-1.718
					c0.678-0.265,1.348-0.559,2.063-0.712c0.876-0.275,1.975,0.033,2.189,1.024c0.422,2.107-4.017,5.03-5.627,6.001
					c-3.283,2.002-7.142,3.068-10.99,2.943c-3.658-0.119-7.305-0.853-10.684-2.27c-4.127-1.813-7.932-4.436-11.183-7.553
					c0.299,0.707,0.59,1.361,0.896,2.045c0.199,0.47,0.492,0.953,0.581,1.458c0.01,0.001,0.021,0.002,0.032,0.003
					c3.024,2.525-4.171,3.154-5.617,3.533c-0.826,0.156-1.652,0.309-2.479,0.46c-5.28,1.101-10.622,1.895-15.947,2.749
					c-12.452,1.848-25.081,2.728-37.666,2.147c-3.398-0.188-6.781-0.503-10.152-0.921c-13.181-1.296-27.195-4.027-40.414-8.353
					c-8.424-2.421-16.662-5.517-24.409-9.604c-5.387-2.999-10.335-6.742-14.869-10.91c-3.371-3.036-6.429-6.434-9.008-10.171
					c-0.368-0.546-0.706-1.107-0.999-1.696c-0.124-0.247-0.264-0.531-0.248-0.815c0.024-0.238,0.351-0.252,0.411-0.043
					c0.757,1.137,1.639,2.186,2.535,3.215c2.37,2.602,4.901,5.058,7.568,7.357c0.144,0.115,0.289,0.227,0.436,0.338
					c3.652,2.835,7.421,5.498,11.458,7.755c13.277,7.217,29.112,12.297,44.34,10.217c0.216-0.029,0.432-0.061,0.646-0.094
					c2.267-0.678,4.497-1.652,6.009-3.04c0.518-3.391-3.502-6.903-5.768-8.9c-4.142-3.413-7.993-7.324-10.31-12.234
					c-1.141-2.259-1.855-4.712-2.217-7.215c-0.007-0.012-0.013-0.025-0.02-0.036c-0.798-1.643-1.99-3.046-3.346-4.256
					c-0.815-0.713-1.678-1.357-2.58-1.941c-4.538-2.346-9.445-4.23-14.535-4.753c-4.997-0.677-6.305,1.662-10.07,4.107
					c-6.193,4.214-14.282,4.768-21.266,2.32c-2.04-0.613-9.107-3.99-7.768-6.555c1-0.745,3.076,1.249,4.159,1.596
					c4.231,2.174,8.992,3.35,13.759,3.051c4.824-0.204,9.036-2.772,12.745-5.669c-0.214-0.133-0.364-0.326-0.409-0.611
					c0.186-1.084,1.639-1.272,2.535-1.479c1.917-0.227,3.943-0.264,6.008-0.118c1.046,0.052,2.084,0.171,3.111,0.352
					c5.425,0.844,10.865,2.898,15.053,6.035c0.931,0.232,1.802,0.646,2.592,1.184c0.067-0.25,0.309-0.422,0.57-0.396
					c0.256,0.025,0.481,0.249,0.482,0.512c0.001,0.215-0.009,0.429-0.023,0.643c0.001,0,0.001,0,0.002,0
					c0.347-0.075,0.777,0.208,1.014,0.63c1.273,2.179,2.152,4.567,3.4,6.763c2.068,3.953,4.831,7.557,8.286,10.395
					c2.32,1.89,4.859,3.492,7.512,4.87c4.589,2.405,9.383,4.382,14.317,5.947c1.682,0.548,3.395,0.969,5.126,1.302
					c0.298-0.18,0.603-0.35,0.917-0.503c1.357-0.661,2.798-1.124,4.242-1.552c4.494-1.34,9.676-2.745,12.176-7.093
					c1.28-2.174,1.324-4.766,2.171-7.095c1.88-5.003,9.213-8.001,13.842-10.013c7.516-2.998,15.38-5.304,22.262-9.68
					c1.035-0.694,2.352-0.982,3.204,0.171c0.73,1.068,0.323,2.441,0.232,3.636c-0.665,5.823-1.307,11.674-1.217,17.544
					c0.032,1.255,0.117,2.52,0.468,3.732c0.22,0.539,0.342,1.383,0.922,1.632c1.268-0.295,2.147-1.426,2.912-2.407
					c1.669-2.245,3.006-4.719,4.697-6.949c2.109-2.837,4.877-5.122,7.883-6.958c7.583-4.82,16.355-6.137,25.1-4.247
					c3.251,0.663,6.168,2.393,8.754,4.42C313.101,226.309,314.047,226.872,314.846,227.605z M304.93,239.937
					c-1.594-0.331-3.24-0.361-4.853-0.157c0.603-0.021,1.206-0.03,1.809-0.023C302.904,239.769,303.917,239.844,304.93,239.937z
					 M284.363,248.643c2.977-1.676,6.428-2.426,9.831-2.156c-1.473-0.352-2.981-0.534-4.495-0.531
					c-0.686,0.013-1.445,0.027-1.973-0.479C286.532,246.452,285.412,247.514,284.363,248.643z"/>
				<path style="fill:#7B192F;" d="M265.128,271.053c0.672,0.549-0.135,1.121-0.619,1.426c-1.09,0.72-2.257,1.312-3.417,1.909
					l-0.001,0.001c-0.234,0.309-0.566,0.574-0.775,0.887c-1.076,1.279-2.1,2.61-3.114,3.938c-5.291,6.93-8.355,15.287-10.717,23.604
					c-0.493,1.822-0.908,3.674-1.143,5.548c-0.174,1.766,0.037,4.672-2.501,4.51c-2.593-0.375-5.084-1.321-7.542-2.203
					c-4.48-1.66-8.863-3.563-13.258-5.434c-3.011-1.236-5.984-2.593-8.954-3.905c-0.489-0.143-0.5-0.892-0.008-1.042
					c0.398-0.074,0.805,0.061,1.199,0.131c0.189-0.901,1.285-1.094,1.969-1.523c0.663-0.347,1.32-0.708,1.969-1.081
					c1.984-1.136,4.113-2.598,5.859-3.947c2.902-2.193,5.465-4.809,8.316-7.062c-1.415,0.637-2.835,1.262-4.266,1.86
					c-0.967,0.54-1.947,1.059-2.93,1.567c-5.384,2.688-10.794,5.357-16.408,7.536c-5.719,2.021-11.584,3.662-17.499,4.993
					c-6.251,1.178-12.683,1.659-19.011,1.234c-6.892-0.418-13.628-2.109-20.246-3.963c-1.465-0.38-2.947-0.693-4.424-1.014
					c-0.174-0.043-0.315-0.2-0.304-0.402c-0.092-0.919,4.335-0.206,4.977-0.123c7.057,1.2,14.13,2.889,21.309,3.071
					c5.463-0.265,10.882-1.257,16.154-2.68c7.25-2.02,14.503-4.196,21.464-7.065c2.426-1.066,5.042-1.96,6.992-3.824
					c0.301-0.345,0.739-0.722,0.715-1.213c-0.753-0.783-2.17-0.878-3.111-1.018c-0.59-0.067-1.18-0.128-1.77-0.191
					c-1.71,0.08-3.423,0.095-5.139,0.018c-1.75-0.105-3.497-0.334-5.18-0.838c-0.887-0.248-1.724-0.63-2.566-0.994
					c-0.469-0.053-0.939-0.106-1.41-0.158c-0.337-0.038-0.615-0.277-0.658-0.609c-0.007-0.002-0.013-0.003-0.02-0.005
					c-0.993-0.241-2.016-0.338-3.038-0.336c-0.901-0.02-1.842,0.18-2.716-0.099c-0.538-0.18-0.969-0.638-1.081-1.2
					c-0.197-0.945,0.471-1.702,1.008-2.391c0.29-0.383,0.594-0.777,0.971-1.074c0.73-0.592,1.654-0.863,2.583-0.902
					c3.374-0.118,6.727,0.464,10.092,0.643c4.169,0.287,8.349,0.335,12.526,0.277c9.061-0.091,18.125-0.983,27.048-2.528
					c2.165-0.385,4.326-0.796,6.458-1.333c0.563-0.095,1.115-0.24,1.665-0.391c0.666-0.203,1.514-0.37,2.005,0.266
					c1.736-0.62,3.453-1.289,5.161-1.983c0.779-0.314,1.559-0.652,2.365-0.891C264.434,270.953,264.822,270.85,265.128,271.053z"/>
				<path style="fill:#7B192F;" d="M190.441,274.829c1.723,0.571,2.38,2.429,0.948,3.725c-0.54,0.465-1.221,0.733-1.862,1.026
					c-2.991,1.267-6.123,2.159-9.255,2.997c-5.91,1.53-12.016,2.871-18.152,2.679c-1.738-0.109-3.45-0.45-5.112-0.962
					c-1.887-0.57-3.758-1.213-5.544-2.053c-1.883-0.313-3.863-0.276-5.649-1.016c-1.011-0.359-1.444-1.609-0.442-2.266
					c0.461-0.282,0.986-0.243,1.501-0.193c2.42,0.262,4.872,0.885,7.26,1.172c3.361,0.394,6.77,0.346,10.126-0.082
					c2.503-0.363,5.167-0.89,7.128-2.598c-0.499-0.255-1.11-0.411-1.58-0.536c-3.023-0.79-5.919-1.995-8.938-2.803
					c-0.942-0.315-2.214-0.419-2.655-1.446c-0.433-1.568,1.242-1.908,2.436-1.906c1.495-0.04,2.995-0.004,4.485,0.131
					c5.027,0.535,9.998,1.514,15.012,2.164c2.9,0.424,5.817,0.789,8.671,1.467C189.368,274.466,189.915,274.616,190.441,274.829z
					 M160.939,282.603c0.324-0.022,0.648-0.045,0.973-0.07c-0.525,0.025-1.046,0.039-1.562,0.042
					c0.001,0.009,0.001,0.016,0.001,0.024C160.546,282.603,160.742,282.604,160.939,282.603z"/>
				<path style="fill:#7B192F;" d="M321.098,305.361c0.775,1.673,1.422,4.4-0.711,5.322c-0.745,0.302-1.656,0.439-2.359,0.697
					c-2.402,0.76-4.6,2-6.772,3.254c-2.422,1.382-4.803,2.85-7.022,4.544c-3.559,2.691-6.646,5.924-9.962,8.895
					c-2.02,1.697-4.549,4.383-7.408,3.952c-1.37-0.251-2.498-1.125-3.574-1.957c-1.169-0.938-2.345-1.867-3.553-2.755
					c-4.349-3.176-9.004-5.936-13.831-8.32c-2.702-1.304-5.455-2.523-8.32-3.423c-2.387-0.561-4.814-0.894-7.255-1.096
					c-1.467-0.167-2.965-0.251-4.385-0.681c-0.338-0.107-0.66-0.32-0.804-0.658c-0.143-0.303-0.02-0.674,0.206-0.895
					c0.435-0.38,1.061-0.323,1.596-0.43c1.474-0.249,2.969-0.372,4.459-0.474c4.064-0.271,8.145-0.11,12.172,0.503
					c7.602,1.053,14.802,4.285,22.464,4.824c7.514,0.449,10.94-3.214,16.937-6.745c2.105-1.285,4.323-2.378,6.395-3.715
					c0.857-0.587,1.71-1.218,2.324-2.068c1.115-1.589,0.023-3.001-0.881-4.36c-2.689-3.966-5.706-7.746-9.173-11.061
					c-1.453-1.479-3.176-2.748-4.511-4.322c-0.566-0.654-0.127-1.641,0.789-1.431c0.822,0.217,1.556,0.686,2.324,1.04
					c0.723,0.333,1.419,0.721,2.107,1.122c5.101,2.973,9.681,6.852,13.355,11.478C317.866,299.275,319.717,302.212,321.098,305.361z
					"/>
				<path style="fill:#7B192F;" d="M340.556,298.081c0.708,0.23,1.193,1.066,0.87,1.778c-0.221,0.508-0.732,0.761-1.227,0.942
					c-2.119,0.828-4.392,1.589-6.521,2.322c-2.914,0.971-5.961,1.801-9.053,1.751c-2.051-0.177-2.967-2.326-3.969-3.84
					c-2.232-3.867-4.576-7.703-7.531-11.068c-3.857-4.484-9.016-7.822-14.594-9.748c-1.473-0.508-3.223-0.873-4.641-1.316
					c-0.514-0.21-1.283-0.262-1.51-0.819c-5.037-0.154-9.982-1.634-14.413-4.01c-0.715-0.387-1.407-0.823-2.085-1.27
					c-0.309-0.203-0.615-0.411-0.904-0.641c-0.221-0.175-0.543-0.432-0.57-0.738c0.019-1.215,2.532,0.111,3.127,0.297
					c6.583,2.798,13.65,3.798,20.744,2.828c1.598-0.23,3.17-0.615,4.772-0.824c3.337-0.416,6.713-0.346,10.07-0.405
					c1.673-0.023,3.341,0.082,4.996,0.322c0.906,0.118,1.824,0.223,2.698,0.5c0.72,0.2,0.688,1.271-0.083,1.379
					c-1.4,0.162-2.814,0.062-4.217,0.165c-2.776,0.104-5.551,0.28-8.305,0.653c-2.007,0.219-3.996,0.56-5.984,0.9
					c2.079,0.678,4.092,1.615,6.053,2.728c5.965,3.096,11.103,7.456,15.969,12.039c3.571,3.273,6.995,4.393,11.663,5.313
					c0.796,0.165,1.605,0.249,2.402,0.4C339.055,297.842,339.845,297.807,340.556,298.081z"/>
				<path style="fill:#7B192F;" d="M393.509,252.861c0.047,0.11,0.01,0.228-0.065,0.305c0.001,0.001,0.001,0.002,0.003,0.003
					c-0.078,0.085-0.207,0.097-0.315,0.114c-0.572,0.09-1.15,0.14-1.728,0.183c-2.568,0.189-5.128,0.512-7.661,0.98
					c-5.486,1.945-10.563,5.197-14.41,9.585c-2.117,2.436-3.85,5.184-5.382,8.018c-2.447,4.464-4.32,9.26-7.234,13.456
					c-1.893,2.608-4.895,6.376-8.3,7.861c-1.77,1.029-3.702,1.679-5.76,1.644c-2.165-0.376-4.015-2.793-3.857-4.964
					c0.041-0.137,0.092-0.252,0.151-0.346c-0.299-0.336-0.596-0.67-0.896-0.993c-2.908-3.128-5.748-6.332-7.976-9.993
					c-1.065-1.671-2.242-3.331-2.901-5.212c-0.091-0.367-0.044-0.803,0.354-0.968c0.65-0.269,1.135,0.507,1.457,0.934
					c0.385,0.513,0.779,1.02,1.186,1.514c0.415,0.503,0.836,1.002,1.249,1.507c0.615,0.513,1.152,1.124,1.702,1.708
					c1.07,1.158,2.301,2.146,3.56,3.092c0.824,0.618,1.636,1.256,2.489,1.834c0.952,0.623,2.007,1.061,3.079,1.431
					c1.639,0.534,3.525,0.582,5.103-0.168c1.615-0.766,2.68-2.279,3.742-3.659c3.54-4.8,6.136-10.227,9.767-14.967
					c2.703-3.452,5.972-6.508,9.682-8.854c2.283-1.382,4.802-2.328,7.376-3.006c4.586-1.152,9.372-1.595,14.092-1.352
					c0.371,0.025,0.745,0.049,1.113,0.1C393.284,252.669,393.441,252.702,393.509,252.861z"/>
				<path style="fill:#7B192F;" d="M389.215,340.657c0.961,0.884,7.92,9.274,4.895,8.934c-1.973-1.557-3.153-3.966-5.245-5.444
					c-8.186-6.762-19.118-11.444-29.777-8.489c-13,3.228-23.214,7.859-37.089,5.102c-7.055-1.005-13.584-4.072-20.523-5.516
					c-2.178-0.606-5.155,0.425-6.65-1.669c-3.992-4.165,23.604-26.27,26.578-22.084c2.853,0.139-6.122,9.342-5.325,14.281
					c5.037,17.923,29.014,4.906,41.438,4.177C369.049,327.993,381.543,331.568,389.215,340.657z"/>
				<path style="fill:#7B192F;" d="M145.967,276.404c0.618,0.018,0.751,0.94,0.157,1.126c-0.574,0.171-1.138,0.374-1.723,0.507
					c-1.173,0.264-2.39,0.221-3.581,0.12c-1.757-0.173-3.659-0.389-5.025-1.62c-0.261-0.272-0.902-0.503-0.638-0.969
					c0.248-0.337,0.535-0.097,0.81,0.02c0.743,0.283,1.676,0.406,2.38,0.494c1.26,0.143,2.523,0.286,3.793,0.265
					C143.418,276.286,144.693,276.32,145.967,276.404z"/>
				<path style="fill:#7B192F;" d="M142.223,272.38c0.285,0.093,0.559,0.323,0.49,0.654c-0.045,0.25-0.281,0.437-0.534,0.421
					c-2.244-0.203-4.494-0.4-6.75-0.378c-3.47,0.021-6.956,0.629-10.416,0.17c-0.55-0.132-1.471-0.231-1.626-0.874
					c-0.016-0.133,0.059-0.268,0.166-0.341c0.139-0.094,0.314-0.087,0.473-0.09c0.72-0.005,1.463-0.075,2.163-0.174
					c2.037-0.273,4.063-0.707,6.124-0.736c2-0.061,4.012-0.016,5.99,0.311C139.643,271.536,140.967,271.867,142.223,272.38z"/>
				<path style="fill:#7B192F;" d="M136.771,285.173c0.411,0.587,0.046,1.454-0.652,1.587c-0.602,0.134-1.214,0.086-1.811-0.048
					c-0.878-0.206-1.786-0.494-2.452-1.13c-0.992-0.926-0.424-2.015,0.91-1.613c0.671,0.129,1.338,0.274,2.008,0.41
					C135.447,284.566,136.31,284.579,136.771,285.173z"/>
				<path style="fill:#7B192F;" d="M136.23,289.632c0.865,0.163,2.906,0.278,2.771,1.512c-0.058,0.312-0.306,0.564-0.617,0.628
					c-0.799,0.255-1.633,0.062-2.449,0.02c-0.915-0.073-1.835-0.11-2.753-0.093c-1.085,0.018-2.169,0.076-3.254,0.115
					c-0.857,0.045-1.712,0.109-2.571,0.116c-0.246,0.009-0.525,0.067-0.764-0.033c-0.816-0.555,0.773-1.284,1.191-1.517
					c1.138-0.543,2.387-0.839,3.641-0.94C133.027,289.313,134.643,289.398,136.23,289.632z"/>
				<path style="fill:#7B192F;" d="M137.68,294.848c0.783,0.278,3.249,0.947,2.909,2.046c-0.215,0.597-0.771,0.523-1.28,0.419
					c-0.66-0.152-1.319-0.318-1.995-0.389c-1.977-0.268-3.987-0.032-5.906,0.482c-0.882,0.248-1.757,0.532-2.613,0.855
					c-0.576,0.197-1.142,0.497-1.757,0.53c-0.251-0.001-0.495-0.154-0.545-0.414c-0.064-0.678,0.656-1.098,1.103-1.491
					c1.241-0.938,2.686-1.592,4.157-2.083C133.672,294.171,135.759,294.27,137.68,294.848z"/>
				<path style="fill:#7B192F;" d="M146.874,300.577c0.219,0.074,0.366,0.284,0.354,0.516c-0.094,0.837-1.469,0.405-2.027,0.386
					c-3.363-0.433-6.752-0.578-10.141-0.588c-0.444-0.003-0.888-0.01-1.332-0.025c-0.393-0.043-0.999,0.066-1.161-0.397
					c-0.062-0.268,0.223-0.409,0.441-0.462c3.562-0.97,7.371-0.976,10.969-0.179C144.943,300.074,145.908,300.332,146.874,300.577z"
					/>
			</g>
		</g>
		<g>
			<path style="fill:#162631;" d="M227.812,204.228c1.783,4.054-1.458,7.248-5.301,4.74c-2.954-1.98-5.578-4.545-7.227-7.725
				c-1.07-2.028-1.887-5.022-0.042-6.842c1.18-1.106,3.021-1.114,4.359-0.291C223.229,196.556,226.312,200.083,227.812,204.228z
				 M225.451,206.977c0.008-0.002,0.016-0.004,0.024-0.006c-0.202-3.431-4.585-8.771-7.575-10.384
				c-0.969-0.325-0.629,1.085-0.586,1.628c0.387,0.739,0.816,1.454,1.274,2.152c1.684,2.29,4.133,5.56,6.792,6.618
				C225.404,206.983,225.427,206.98,225.451,206.977z"/>
			<path style="fill:#162631;" d="M150.663,218.329c0.731,0.807,2.766,4.361,1.224,4.961c-0.292,0.087-0.655-0.004-0.837-0.253
				c-1.585-3.56-3.191-4.998-7.242-4.127c-1.164,0.232-2.241,0.836-3.402,1.038c-0.583,0.042-0.651-0.677-0.332-1.035
				c1.619-2.034,4.426-2.971,6.964-2.538C148.414,216.603,149.751,217.257,150.663,218.329z"/>
			<path style="fill:#162631;" d="M163.293,234.603c2.379,2.761,1.687,7.102-0.78,9.574c-3.247,3.256-9.011,3.825-13.379,3.27
				c-4.452-0.538-8.551-2.755-11.702-5.906c-2.056-2.019-3.841-4.506-4.321-7.404c-0.561-2.928,1.074-6.216,4.438-5.729
				c2.03,0.31,3.878,1.267,5.829,1.858c1.898,0.503,3.851,0.852,5.815,0.928c1.638,0.04,3.275-0.071,4.913-0.078
				C157.469,230.978,161.156,231.8,163.293,234.603z"/>
			<path style="fill:#162631;" d="M310.685,238.279c0.749,2.799-2.701,0.254-3.775-0.044c-1.519-0.547-3.097-0.927-4.702-1.105
				c-6.284-0.701-12.144,2.785-16.093,7.448c5.765-2.206,13.506-1.195,16.654,4.669c0.295,0.531-0.37,1.158-0.876,0.807
				c-0.346-0.251-0.668-0.516-1.006-0.759c-4.778-2.993-11.411-3.041-16.21-0.062c-0.93,0.577-1.786,1.262-2.554,2.04
				c-0.92,0.853-1.497,2.534-3.012,2.269c-2.189-0.505-1.472-2.653-0.586-4.038c1.185-2.242,2.546-4.396,4.147-6.365
				c4.576-5.742,11.568-10.244,19.158-9.436C305.097,234.124,309.019,235.168,310.685,238.279z"/>
			<path style="fill:#162631;" d="M402.143,248.946c3.388,2.257,3.096,6.275-0.627,7.999c-3.094,1.504-6.66,1.452-10.015,1.809
				c-2.68,0.248-5.366,0.619-7.973,1.295c-5.312,1.167-8.805,5.38-11.269,9.968c-4.557,8.75-8.922,18.044-16.752,24.393
				c-1.855,1.463-4.168,3.08-6.561,3.945c0.22,0.572,0.163,1.243-0.254,1.903c-1.207,1.826-3.392,2.627-5.278,3.562
				c-5.276,2.352-11.072,3.693-16.861,3.533c0.668,1.585,0.834,3.153-0.072,4.195c1.079,0.664,2.184,1.284,3.38,1.724
				c2.066,0.847,4.256,1.266,6.47,1.473c4.002,0.406,7.997,0.897,12.01,1.186c3.578,0.032,12.699,1.238,15.348-0.806
				c5.386-5.13,10.916-7.727,17.652-3.013c8.887,7.253,14.85,17.873,18.27,28.708c1.053,4.146,2,8.555,1.125,12.815
				c-0.625,3.437-3.263,5.563-6.6,3.596c-3.043-1.507-5.438-3.955-7.868-6.269c-5.708-4.986-12.871-10.931-20.814-10.92
				c-2.811,0.158-5.411,1.446-8.081,2.236c-3.557,1.17-7.123,2.322-10.763,3.206c-12.508,3.263-23.026,1.151-35.035-2.689
				c-2.44-0.879-12.291-3.572-15.814-5.874c-0.026,0.042-0.051,0.085-0.076,0.127c-0.683,1.354-1.926,2.651-3.578,2.307
				c-8.161-1.479-14.222-7.568-21.101-11.713c-7.116-4.934-15.957-5.979-23.589-9.804c-1.369-0.732-2.78-1.429-4.015-2.377
				c-0.081-0.08-0.156-0.159-0.224-0.237c-0.052,0.006-0.105,0.013-0.159,0.017c-0.325,0.099-0.661,0.17-1.003,0.156
				c-4.417,0.13-8.687-1.145-12.797-2.638c-5.009-1.795-9.909-4.095-14.091-7.424c-1.089-0.9-2.209-1.818-3.134-2.896
				c-12.309,5.676-25.621,9.654-39.286,8.303c-7.158-0.696-14.101-2.873-20.737-5.575c-1.091-0.427-2.127-0.967-3.14-1.55
				c-0.733,0.567-1.774,0.933-2.485,1.139c-2.943,0.926-5.89-0.261-8.853-0.322c-2.82-0.213-5.513,0.865-8.297,0.969
				c-2.927-0.089-4.124-2.905-3.159-5.214c-2.42-1.141-3.709-4.363-1.53-6.501c0.246-0.261,0.506-0.504,0.778-0.731
				c-0.905-1.046-0.857-2.759,0.266-3.935c1.231-1.318,2.971-2.012,4.649-2.595c-0.67-0.715-1.098-1.652-1.027-2.587
				c0.288-2.444,3.338-2.996,5.369-2.753c1.835,0.198,3.475,1.089,5.11,1.879c1.699,0.852,3.448,1.624,5.056,2.642
				c0.074,0.048,0.16,0.103,0.248,0.166c1.788,0.165,3.578,0.305,5.375,0.348c0.876,0.02,1.753,0.025,2.629,0.015
				c-0.558-0.29-1.118-0.577-1.699-0.818c-1.968-0.91-3.929-1.834-5.848-2.843c-0.482-0.254-1.01-0.49-1.417-0.854
				c-1.073,0.187-2.177,0.217-3.252,0.114c-1.794-0.153-3.447-0.887-5.099-1.547c-2.196-0.795-4.801-1.865-5.639-4.229
				c-2.533-0.334-5.118,0.353-7.627-0.217c-0.892-0.215-1.859-0.511-2.525-1.175c-1.241-1.169-1.102-3.022,0.024-4.223
				c1.506-1.631,3.992-2.401,6.103-2.899c6.02-1.299,12.345,0.308,18.21,1.35c3.511,0.538,7.079,1.05,10.65,1.387
				c-7.829-2.44-15.421-5.626-22.659-9.508c-16.852-8.364-34.244-25.458-30.744-45.702c-8.231-7.257-8.647-17.132,3.407-21.444
				c1.249-0.392,2.526-0.674,3.818-0.851c3.447-8.816,7.348-17.471,11.156-26.103c0.221-0.324,0.527-0.953,0.897-1.769
				c-2.177-1.467-4.193-3.184-5.995-5.123c-7.618-7.814-12.694-18.243-13.353-29.197c-0.035-0.583-0.064-1.17-0.066-1.756
				c-0.023-0.545,0.047-1.523,0.807-1.331c0.373,0.144,0.502,0.622,0.627,0.963c0.09,0.248,0.176,0.497,0.259,0.747
				c0.543,1.083,1.178,2.124,1.926,3.062c4.118,5.434,9.748,9.581,15.769,12.694c0.688,0.35,1.39,0.672,2.097,0.981
				c-1.725-3.367-2.948-6.971-3.678-10.303c-1.017-5.29-1.34-11.397,0.406-16.516c0.062-0.198,0.129-0.392,0.23-0.574
				c0.196-0.433,0.36-0.948,0.814-1.173c0.409-0.203,0.879,0.012,1.097,0.384c0.677,1.327,0.947,2.812,1.461,4.203
				c0.364,0.961,0.766,1.907,1.203,2.838c0.447,0.826,0.935,1.627,1.489,2.388c2.585,3.52,5.797,6.491,9.279,9.1
				c1.472-1.292,2.996-2.523,4.53-3.709c3.433-2.939,7.126-5.572,10.88-8.087c1.447-3.313,3.279-6.361,5.229-8.737
				c0.085-0.121,0.173-0.242,0.261-0.361c1.267-1.757,2.722-3.388,4.439-4.716c0.407-0.317,0.811-0.624,1.331-0.718
				c0.457-0.082,0.896,0.148,1.135,0.534c0.453,0.801-0.259,1.588-0.688,2.226c-1.284,1.835-2.181,3.97-2.728,6.23
				c4.816-2.693,9.825-5.04,15.01-6.934c8.752-3.009,17.753-5.386,26.887-6.931c0,0,0.001-0.001,0.001,0
				c0.398-0.074,0.796-0.146,1.194-0.216c9.448-1.718,19.089-2.551,28.675-1.701c22.856,1.776,44.987,11.126,62.071,26.431
				c5.993,5.308,11.811,11.005,16.158,17.767c1.295-0.235,2.622-0.133,3.729,0.666c1.892,1.445,3.374,3.86,3.213,6.296
				c-0.071,0.842-0.504,1.482-1.067,2.028c5.872,9.292,8.985,20.352,9.648,31.281c0.094,1.759,0.158,3.526,0.023,5.284
				c0.007,0.57-0.067,1.234-0.278,1.801c0.504,0.294,0.929,0.633,1.264,1.025c1.348,2.796,0.863,7.576-2.384,8.765
				c0.204,1.062,0.165,2.302,0.119,3.092c-0.254,2.815-1.089,5.574-2.356,8.097c-0.912,1.781-2.083,3.417-3.458,4.868
				c1.526,1.115,2.919,2.391,4.126,3.827c2.491,2.914,3.777,6.618,4.222,10.389c1.531,12.225-6.056,24.621-15.008,32.379
				c-1.568,1.4-3.264,2.688-5.058,3.821c2.26-0.484,4.526-0.938,6.822-1.224c3.977-0.457,8.22-1.12,12.056,0.366
				c0.194,0.095,0.379,0.201,0.557,0.315c1.871-0.985,5.115-1.694,5.891-1.792c4.132-0.794,8.413-1.034,12.587-0.441
				c0.5-0.676,0.921-1.228,1.138-1.549c3.81-5.262,8.485-9.792,12.995-14.408c1.273-3.265,2.582-6.846,5.802-8.688
				c8.279-4.818,21.028,0.046,29.595,2.295C396.549,246.596,399.581,247.294,402.143,248.946z M398.671,254.258
				c3.884-1.249,2.15-2.237-0.586-3.39c-2.924-1.118-5.988-1.806-8.987-2.687c-6.738-1.862-21.711-6.751-25.77,1.149
				c-1.28,2.361-1.582,5.04-3.893,6.749c-3.861,3.555-7.47,7.283-10.865,11.266c-2.179,2.367-3.805,5.185-5.999,7.532
				c-0.4,0.386-1.089,0.727-1.582,0.279c-0.688-0.643-0.031-2.226,0.968-3.881c-0.882-0.086-1.767-0.165-2.653-0.101
				c-2.618,0.061-5.228,0.332-7.823,0.666c-1.221,0.103-2.447,0.439-3.672,0.665c0.592,0.815,1.109,1.697,1.64,2.521
				c1.584,2.593,2.982,5.296,4.671,7.824c2.732,4.079,5.643,8.109,9.318,11.398c0.767,0.679,1.588,1.298,2.451,1.853
				c0.93-0.636,2.025-1.031,3-1.592c3.445-1.707,6.318-4.372,8.836-7.241c4.502-5.289,7.591-11.542,10.722-17.69
				c2.337-4.41,5.244-8.828,9.725-11.288c2.966-1.497,6.254-2.211,9.524-2.67C391.337,255.022,395.08,255.151,398.671,254.258z
				 M396.641,354.422c3.231-7.2-3.128-20.846-7.046-27.173c-3.215-4.786-7.793-12.02-13.502-13.787
				c-6.651-1.754-8.604,5.702-14.376,6.092c-8.075,0.803-16.21-0.325-24.246-1.115c-5.108-0.287-10.122-1.78-14.307-4.777
				c-0.258-0.112-0.48-0.252-0.668-0.412c-1.439,0.5-2.858,1.06-4.231,1.72c-3.816,1.938-7.159,4.648-10.403,7.409
				c-3.483,3.022-6.686,6.396-9.342,10.173c-0.493,0.728-0.969,1.465-1.435,2.209c1.389,0.396,2.95,1.148,3.609,1.255
				c10.834,3.249,21.782,7.329,33.2,7.592c7.318-0.139,14.436-2.038,21.302-4.359c2.936-0.894,5.794-2.141,8.829-2.66
				c5.254-0.642,10.345,1.467,14.722,4.203c3.07,1.869,5.984,4.009,8.668,6.402C390.386,349.753,392.899,353.009,396.641,354.422z
				 M333.991,303.135c3.81-0.78,7.527-2.103,10.925-4.002c-6.899-3.978-12.333-11.693-16.227-18.514
				c-1.124-1.763-3.596-7.085-5.358-7.652c-2.268-0.681-4.689-0.51-7.026-0.402c-1.601,0.099-3.193,0.302-4.776,0.561
				c-2.557,0.414-5.094,0.956-7.658,1.323c-1.338,0.173-4.83,0.86-6.918,0.529c-2.883,0.756-5.874,1.073-8.891,0.833
				c-3.598-0.299-7.187-1.243-10.362-2.961c-0.212-0.001-0.418-0.03-0.588-0.08c-0.38-0.066-0.756-0.155-1.128-0.255
				c-0.196,0.124-0.412,0.227-0.645,0.306c-12.189,6.277-15.362,19.033-19.936,30.834c1.258,0.069,2.499,0.317,3.734,0.555
				c9.04,1.933,17.855,5.04,26.046,9.333c5.283,2.773,10.278,6.045,15.279,9.288c0.328,0.233,0.685,0.43,1.03,0.642
				c1.337-1.375,2.742-2.685,4.211-3.926c5.151-4.603,11.015-8.451,17.716-10.34c-1.854-4.501-3.92-8.978-6.511-13.109
				c-3.822-5.568-9.177-10.059-15.107-13.241c-4.021-2.141-8.487-3.203-12.872-4.07c-0.751-0.306-3.348-0.348-3.241-1.295
				c0.039-0.281,0.274-0.464,0.547-0.477c1.555-0.08,3.125,0.018,4.672,0.173c11.466,1.118,20.682,5.938,27.691,15.152
				c2.691,3.568,4.603,7.622,6.445,11.682c0.404-0.036,0.824-0.014,1.209-0.02c0.604-0.004,1.208-0.033,1.81-0.072
				C330.051,303.774,332.034,303.519,333.991,303.135z M322.494,201.049c0.815-0.912,0.692-2.348,0.493-3.475
				c-9.075-2.191-20.126-0.029-29.844,2.044c-0.006,0.001-0.013,0.002-0.018,0.003c-0.411,0.088-0.819,0.176-1.224,0.262
				c-0.858,0.184-1.704,0.366-2.536,0.542c-0.61,0.129-1.212,0.255-1.806,0.377c-2.172,0.55-4.337,1.128-6.495,1.738l0.001,0.001
				c-0.632,0.178-1.263,0.359-1.894,0.543c-0.297,0.087-0.594,0.174-0.891,0.262c-0.219,0.064-0.438,0.13-0.657,0.196
				c-2.17,0.651-4.331,1.336-6.477,2.06c-2.162,0.757-4.299,1.597-6.466,2.347v0.001c-0.069,0.024-0.139,0.048-0.208,0.071
				c-0.107,0.037-0.213,0.073-0.32,0.109c-0.214,0.072-0.427,0.143-0.641,0.213c-0.081,0.026-0.16,0.052-0.24,0.078
				c-0.456,0.146-0.914,0.288-1.375,0.421c-0.082,0.024-0.164,0.048-0.247,0.072c-0.067,0.019-0.135,0.038-0.203,0.057
				c-0.041,0.012-0.082,0.024-0.124,0.035v-0.001c-0.135,0.038-0.269,0.074-0.404,0.11c-0.096,0.032-0.188,0.038-0.273,0.022
				c-0.18,0.051-0.361,0.098-0.544,0.139c-0.371,0.083-0.999,0.151-1.039-0.39c0.022-0.547,0.543-0.919,0.894-1.281
				c0.427-0.368,0.853-0.718,1.279-1.057c0.01-0.008,0.019-0.016,0.029-0.024c0.112-0.089,0.225-0.178,0.337-0.267
				c0.345-0.271,0.689-0.536,1.033-0.799c0.226-0.174,0.452-0.346,0.677-0.518c0.373-0.285,0.745-0.572,1.116-0.863
				c0.493-0.388,0.987-0.786,1.48-1.204c1.976-1.647,3.857-3.397,5.656-5.224c0.11-0.112,0.22-0.223,0.329-0.336
				c0.098-0.1,0.195-0.201,0.292-0.301c0.103-0.107,0.206-0.214,0.308-0.321c0.184-0.192,0.366-0.384,0.548-0.578
				c0.326-0.346,0.648-0.695,0.969-1.046c0.102-0.112,0.205-0.225,0.307-0.338c1.871-2.113,3.626-4.321,5.374-6.535
				c0.431-0.545,0.861-1.09,1.292-1.635c0.289-0.365,0.579-0.73,0.87-1.094c1.025-1.284,2.064-2.558,3.138-3.802
				c8.333-9.645,16.743-19.377,26.873-27.188c0.102-0.142,0.241-0.248,0.409-0.314c0.2-0.153,0.401-0.305,0.603-0.456
				c-0.135-0.979-0.684-1.846-1.364-2.543c-0.277-0.307-0.627-0.528-1.055-0.439c-1.189,0.153-2.268,0.711-3.313,1.268
				c-6.766,3.905-11.967,9.898-17.117,15.657c-3.965,4.612-7.75,9.39-11.583,14.123c-0.219,0.269-0.437,0.538-0.656,0.808
				c-0.203,0.25-0.406,0.5-0.609,0.749c-0.296,0.363-0.592,0.726-0.889,1.087c-1.947,2.376-3.918,4.731-5.942,7.037l0.001,0.001
				c-0.072,0.082-0.144,0.164-0.216,0.246c-0.099,0.114-0.199,0.227-0.299,0.339c-0.147,0.166-0.294,0.332-0.443,0.497
				c-0.119,0.135-0.239,0.268-0.359,0.402c-0.347,0.387-0.696,0.772-1.046,1.157c-1.366,1.495-2.76,2.965-4.192,4.402
				c-0.014,0.014-0.029,0.029-0.044,0.044c-0.163,0.164-0.326,0.326-0.49,0.488c-0.003,0.003-0.006,0.006-0.01,0.01
				c-0.164,0.164-0.33,0.326-0.495,0.488c-0.334,0.327-0.669,0.652-1.007,0.975c-0.141,0.135-0.283,0.271-0.425,0.405
				c-0.143,0.135-0.285,0.269-0.428,0.403v-0.001c-0.055,0.052-0.11,0.104-0.166,0.156c-5.505,5.107-11.453,9.74-17.804,13.75
				c-5.726,3.649-11.797,7.11-18.374,8.902c0.74,1.209,1.37,2.469,1.862,3.768c2.599-1.526,6.77-2.965,7.908-3.624
				c3.789-1.618,7.579-3.24,11.426-4.718c5.17-1.919,10.379-3.787,15.627-5.553c0.285-0.096,0.57-0.192,0.854-0.287
				c0.285-0.095,0.57-0.19,0.855-0.285c0.286-0.095,0.572-0.189,0.857-0.283c5.686-1.872,11.418-3.616,17.196-5.167
				c0.305-0.082,0.608-0.163,0.914-0.243c0.012-0.003,0.024-0.007,0.038-0.01c0.256-0.067,0.513-0.135,0.77-0.202
				c0.068-0.018,0.136-0.036,0.205-0.053c0.305-0.08,0.611-0.159,0.917-0.237c2.867-0.736,5.745-1.422,8.635-2.051
				c0.619-0.135,1.238-0.266,1.857-0.396c0.31-0.065,0.62-0.129,0.93-0.192c0.31-0.064,0.62-0.126,0.93-0.187
				C304.953,202.676,313.675,201.492,322.494,201.049z M312.166,261.301c6.004-6.279,11.048-15.364,10.75-24.243
				c-0.309-5.901-2.157-10.14-7.019-13.67c-8.653-6.148-19.709-6.565-29.243-2.228c-0.608,0.268-1.196,0.578-1.819,0.809
				c-0.772,0.286-1.427-0.647-0.904-1.284c1.316-1.532,2.993-2.723,4.792-3.646c-0.278-0.295-0.549-0.597-0.815-0.903
				c-0.528,0.193-1.062,0.374-1.551,0.658c-2.513,1.371-4.503,3.479-6.313,5.663c-3.348,4.209-6.108,8.848-8.999,13.373
				c-1.792,2.675-4.384,7.298-8.089,6.978c-1.27-0.152-2.331-1.017-2.851-2.166c-1.361-2.785-0.394-6.644-0.049-9.623
				c0.685-4.415,1.053-8.87,1.232-13.332c-6.125,2.116-12.212,4.339-18.282,6.54c-5.026,1.962-9.99,4.081-15.046,5.967
				c-0.234,0.06-0.495,0.161-0.767,0.27c0.636,2.81,0.607,5.772-0.318,8.813c-1.392,4.419-4.549,8.336-8.651,10.513
				c-3.916,1.918-8.359,2.584-12.69,2.461c-10.081-0.332-20.36-5.518-28.62-11.036c-2.889-1.952-5.618-4.178-7.955-6.775
				c-3.311-3.471-5.536-8.302-4.938-12.794c-0.125-0.081-0.248-0.164-0.372-0.243c-1.339-0.882-2.698-1.738-4.1-2.516
				c-2.821-1.562-5.882-2.63-8.966-3.54c-2.35-0.684-4.473-1.164-6.794-1.382c-1.622-0.147-3.256-0.127-4.874,0.053
				c-1.099,0.133-2.177,0.354-3.251,0.623c-0.328,0.101-0.708,0.205-1.074,0.232c-2.903,4.99-10.038,6.913-15.657,6.656
				c-5.058,0.103-10.118-1.136-14.272-4.013c-0.111,0.928-0.183,1.861-0.206,2.801c0.389,11.159,7.133,21.237,15.566,28.152
				c19.348,15.593,44.203,21.813,68.427,24.731c25.988,4.5,50.835,4.833,75.539-5.618c1.765-0.64,3.424-1.601,5.163-2.289
				c-1.218-1.665-2.186-3.496-2.741-5.503c-0.126-0.442-0.219-0.902-0.233-1.361c-0.054-0.233,0.096-0.471,0.328-0.525
				c0.212-0.049,0.433,0.071,0.509,0.273c1.054,1.925,2.438,3.66,3.936,5.264c2.172,2.289,4.563,4.422,7.334,5.963
				c3.84,2.055,8.245,3.063,12.596,2.916C299.207,272.033,306.574,267.184,312.166,261.301z M321.449,192.896
				c0.108-1.186,0.11-2.381,0.077-3.571c-0.096-2.8-0.334-5.602-0.76-8.371c-1.352-7.96-3.946-15.733-7.704-22.883
				c-9.177,7.198-16.81,16.099-24.471,24.834c-1.504,1.71-2.952,3.47-4.389,5.24c2.295,2.675,4.509,5.423,6.614,8.25
				c0.505-0.105,1.011-0.207,1.518-0.305c5.475-1.062,20.728-4.192,29.016-2.619C321.369,193.275,321.403,193.082,321.449,192.896z
				 M318.213,214.022c1.443-2.88,2.331-6.052,2.581-9.266c-3.823,0.309-7.684,0.4-11.472,0.976c-3.745,0.42-7.461,0.987-11.15,1.676
				c1.117,1.889,2.178,3.812,3.178,5.77c0.173,0.335,0.361,0.67,0.509,1.016c0.081,0.21,0.123,0.414,0.133,0.61
				c0.504,0.036,1.007,0.081,1.507,0.133c3.9,0.479,7.885,1.692,11.428,3.632c0.103-0.183,0.234-0.354,0.391-0.504
				C316.466,216.86,317.435,215.494,318.213,214.022z M306.072,148.538c-0.15-0.224-0.302-0.447-0.456-0.668
				c-5.654-7.972-12.997-14.605-20.643-20.625c-10.624-8.186-22.863-14.137-35.839-17.515c-12.063-3.189-24.726-4.255-37.127-2.769
				c-0.002,0-0.004,0-0.006,0.001c-2.442,0.385-4.868,0.877-7.302,1.316c-13.4,2.226-26.499,6.261-38.655,12.354
				c-2.447,1.128-4.856,2.333-7.225,3.613c-0.031,2.603,0.331,5.196,1.035,7.544c14.208-0.062,28.368,2.449,42.085,6.044
				c13.069,3.528,25.888,8.209,37.816,14.649c13.18,7.259,25.488,16.19,36.198,26.771c6.888-8.531,13.535-17.278,21.682-24.669
				C300.234,152.305,302.988,150.123,306.072,148.538z M299.217,325.95c-0.215-0.153-0.432-0.304-0.655-0.435
				c-2.043-1.358-4.071-2.735-6.132-4.063c-8.653-5.666-18.054-10.237-27.935-13.257c-2.57-0.8-5.15-1.566-7.735-2.314
				c-0.409-0.119-0.817-0.237-1.221-0.372c-0.238-0.088-0.495-0.164-0.738-0.262c-0.201,0.531-0.454,1.186-0.745,1.914
				c0.165,0.024,0.33,0.049,0.493,0.076c2.57,0.43,5.082,1.157,7.552,1.979c10.759,3.843,20.995,9.104,30.809,14.921
				c1.399,0.838,2.788,1.697,4.144,2.604c0.311,0.222,0.65,0.416,0.964,0.637C298.41,326.895,298.81,326.419,299.217,325.95z
				 M296.144,329.801c-0.394-0.269-0.769-0.577-1.177-0.816c-1.81-1.21-3.857-2.589-5.62-3.643
				c-10.841-6.459-22.377-11.711-34.243-15.986c-0.566-0.204-1.137-0.393-1.7-0.608c-0.95,2.258-2.134,4.811-3.264,6.51
				c6.075,2.615,12.674,3.955,18.602,6.958c4.531,2.379,8.681,5.401,12.862,8.335c3.248,2.311,6.756,4.36,10.689,5.219
				C293.459,333.704,294.746,331.711,296.144,329.801z M298.169,214.727c-1.153-2.24-2.386-4.435-3.693-6.586
				c-2.451,0.513-4.89,1.076-7.32,1.683c0.256,0.331,0.51,0.663,0.762,0.997c1.212,1.643,2.509,3.269,3.452,5.084
				C293.554,215.157,295.854,214.811,298.169,214.727z M287.003,197.249c-0.026-0.035-0.053-0.069-0.079-0.103
				c-1.597-2.127-3.245-4.217-4.945-6.263c-1.826,2.241-3.673,4.46-5.641,6.574c0.711,0.74,1.418,1.486,2.119,2.236
				C281.266,198.753,284.119,197.945,287.003,197.249z M285.885,213.689c-0.257-0.318-0.516-0.636-0.776-0.951
				c-0.537-0.657-1.076-1.313-1.618-1.966c-6.305,1.688-12.545,3.643-18.742,5.733c-0.119,4.201-0.451,8.399-0.938,12.562
				c-0.248,2.208-0.56,4.409-0.786,6.62c-0.108,1.191-0.309,2.526,0.367,3.589c0.004,0.001,0.008,0.003,0.012,0.004
				c1.951-0.681,4.105-4.63,5.287-6.38c1.928-3.055,3.85-6.116,5.91-9.084c1.996-2.818,4.075-5.671,6.845-7.78
				c0.772-0.577,1.579-1.1,2.435-1.543C284.338,214.271,285.081,213.942,285.885,213.689z M274.806,201
				c-0.317-0.335-0.636-0.669-0.955-1.001c-0.055,0.053-0.11,0.107-0.166,0.16c-0.816,0.79-1.652,1.57-2.51,2.327
				C272.374,201.961,273.585,201.467,274.806,201z M271.548,268.084c-0.015-0.016-0.031-0.031-0.047-0.047
				c-0.026,0.021-0.053,0.042-0.08,0.062C271.463,268.094,271.506,268.089,271.548,268.084z M270.234,271.951
				c-0.203,0.057-0.404,0.121-0.603,0.191c-6.696,2.332-10.873,8.606-13.943,14.66c-2.67,5.199-4.777,10.672-6.444,16.269
				c-1.015,3.23-1.683,6.588-3.051,9.696c-0.065,0.144-0.133,0.283-0.203,0.416c0.655,0.383,1.32,0.74,1.994,1.076
				c0.397-0.844,0.846-1.658,0.971-2.125c1.968-5.033,3.916-10.075,5.774-15.151c3.094-8.544,6.49-17.497,13.614-23.534
				C268.86,273.045,269.514,272.509,270.234,271.951z M267.845,188.862c2.057-2.284,4.043-4.633,5.996-7.011
				c-4.298-4.388-8.882-8.492-13.767-12.23c-14.489-11.2-30.919-19.726-48.272-25.53c-14.075-4.739-28.683-8.185-43.523-9.247
				c-2.449-0.132-4.896-0.225-7.337-0.253c1.645,3.259,4.401,5.858,7.379,7.988c10.326,0.414,20.419,2.9,30.288,5.838
				c15.925,4.594,31.039,11.73,44.908,20.784c4.874,3.067,9.491,6.527,13.788,10.362c0.783,0.729,1.576,1.468,2.321,2.249
				c2.806,2.273,5.499,4.68,8.127,7.156C267.784,188.932,267.815,188.898,267.845,188.862z M263.05,194.148
				c0.795-0.828,1.579-1.666,2.35-2.515c-1.264-1.185-2.545-2.353-3.844-3.505c0.576,1.745,0.97,3.556,1.359,5.347
				C262.961,193.699,263.006,193.923,263.05,194.148z M261.911,272.504c0.234-0.188,0.471-0.373,0.713-0.554
				c-16.34,6.295-34.107,8.873-51.565,7.581c-4.716-0.401-9.421-0.924-14.116-1.527c-0.45,0.248-0.984,0.423-1.422,0.609
				c-1.076,0.422-2.143,0.865-3.219,1.284c-6.452,2.743-12.836,5.757-19.657,7.494c-3.533,0.938-7.174,1.364-10.809,1.674
				c-3.383,0.325-6.781,0.387-10.176,0.273c-3.287-0.027-6.549-0.418-9.813-0.768c-3.084-0.36-6.22-0.297-9.243,0.458
				c-0.869,0.216-1.726,0.48-2.565,0.797c-0.884,0.389-1.872,0.734-2.522,1.475c0.063,0.051,0.132,0.097,0.206,0.142
				c2.018-0.917,4.317-1.312,6.481-1.442c0.932,0.009,4.433-0.016,4.453,1.183c-0.025,0.263-0.221,0.453-0.473,0.508
				c-3.282,0.651-6.742,0.983-9.731,2.599c-3.094,1.94-2.741,2.471-0.604,3.743c2.617-2.004,6.18-2.594,9.413-2.48
				c0.73,0.107,3.807,0.254,3.605,1.257c-0.03,0.312-0.296,0.565-0.611,0.575c-3.093,0.076-6.332,0.41-9.109,1.869
				c-1.998,0.966-3.997,3.851-0.09,2.677c2.34-0.606,4.782-0.869,7.196-0.699c2.052,0.148,4.054,0.892,6.128,0.674
				c0.431-0.047,0.861-0.1,1.288-0.173c-0.708-0.515-1.271-1.367-0.046-1.7c6.52,1.187,12.629,4.308,19.097,5.654
				c19.977,5.466,40.274-2.853,57.85-11.97c2.174-1.207,4.294-2.51,6.33-3.939c0.49-0.239,0.958-0.847,1.521-0.468
				c0.359,0.244,0.4,0.809,0.06,1.088c-3.753,4.498-9.117,7.241-14.182,9.971c-0.719,0.359-1.441,0.713-2.168,1.062
				c0.962,0.76,1.941,1.498,2.951,2.193c3.97,2.703,8.398,4.64,12.899,6.273c3.149,1.092,6.435,1.814,9.761,2.073
				c0.664,0.042,1.332,0.068,1.997,0.031c0.347-0.044,0.691-0.032,1.035,0.022c0.951-2.021,1.431-4.227,2.051-6.364
				c0.965-3.526,2.032-7.028,3.302-10.457c1.229-3.305,2.616-6.551,4.23-9.687C254.768,280.687,257.708,275.974,261.911,272.504z
				 M260.414,196.812c-0.382-2.998-0.89-5.974-1.545-8.916c-0.225-0.883-0.483-1.756-0.696-2.641
				c-0.005-0.014-0.01-0.028-0.014-0.042c-1.683-1.37-3.394-2.71-5.128-4.015c-4.52-3.129-9.112-6.155-13.771-9.07
				c-4.027-2.492-8.087-4.944-12.214-7.27c-0.917-0.015-1.852-0.01-2.677,0.033c-12.866,0.852-25.962,5.027-35.679,13.74
				c-0.79,0.703-1.575,1.413-2.327,2.157c-0.062,0.061-0.124,0.122-0.187,0.182c-0.425,0.606-0.91,1.123-1.23,0.752
				c-0.386-0.913,0.268-2.846,0.565-3.788c1.026-3.049,2.607-5.888,4.422-8.534c0.091-0.128,0.183-0.257,0.276-0.385
				c-1.844,1.25-3.728,2.44-5.647,3.563c-4.896,2.739-10.169,4.79-15.586,6.237c-5.096,1.279-10.371,2.118-15.633,1.62
				c-2.624-0.228-5.203-0.997-7.542-2.201c-0.076-0.033-0.152-0.069-0.226-0.107c-0.429-0.229-0.659-0.893-0.044-1.033
				c2.558,0.527,5.124-0.399,7.24-1.818c1.438-0.951,2.667-2.163,3.832-3.424c0.982-1.056,2.006-2.079,2.85-3.253
				c0.326-0.429,0.633-0.871,0.921-1.326c-0.426,0.201-0.857,0.391-1.292,0.572c-2.45,0.999-5.006,1.733-7.601,2.249
				c-3.81,0.738-7.719,0.797-11.588,0.685c-5.661-0.042-11.226-1.508-16.165-4.161c-1.452,3.134-2.874,6.28-4.263,9.441
				c0.507-0.246,1.01-0.472,1.479-0.695c2.132-0.977,5.62-1.28,6.5,1.463c0.949,4.485-7.524,9.116-11.312,7.742
				c-0.092-0.033-0.179-0.071-0.263-0.112c-1.107,2.658-2.187,5.326-3.237,8.006c5.212,0.146,10.381,1.934,14.496,5.13
				c3.442,2.392,6.96,5.741,8.234,9.831c0.652-0.188,1.287-0.305,1.688-0.382c5.541-0.874,11.224-0.112,16.63,1.225
				c4.309,1.211,9.652,3.888,12.626,7.273c0.101,0.166,0.218,0.32,0.34,0.47c0.196-0.22,0.404-0.436,0.625-0.648
				c1.714-1.731,4.071-3.22,6.216-4.234c2.224-1.081,4.56-1.942,6.973-2.492c2.055-0.47,4.166-0.608,6.248-0.912
				c8.168-0.94,16.679,0.389,24.039,4.102c4.322,2.214,8.665,5.516,11.863,9.528c0.141-0.061,0.287-0.11,0.434-0.144
				c5.858-2.001,11.405-4.847,16.63-8.154C247.189,208.456,254.129,202.974,260.414,196.812z M212.037,163.559
				c3.473-0.699,7.058-1.225,10.615-1.109c-5.391-2.871-10.912-5.477-16.636-7.631c-1.889-0.743-3.788-1.467-5.698-2.164
				c-1.332-0.417-2.668-0.819-4.008-1.209c-6.869-1.967-13.438-3.702-20.46-4.641c-0.369-0.044-0.737-0.087-1.106-0.128
				c0.289,0.182,0.577,0.368,0.862,0.557c0.266,0.216,0.503,0.601,0.281,0.938c-0.486,0.631-1.424,0.358-2.095,0.253
				c-1.764-0.344-3.406-1.118-4.983-1.959c-0.195-0.105-0.39-0.212-0.584-0.32h-0.001c-0.121-0.068-0.243-0.137-0.364-0.206
				c-0.12-0.069-0.239-0.139-0.359-0.209c-0.003-0.002-0.006-0.004-0.009-0.005c-0.108-0.064-0.216-0.128-0.323-0.194
				c-0.082-0.049-0.164-0.1-0.246-0.151c-0.09-0.055-0.18-0.11-0.268-0.167c-0.013-0.008-0.026-0.017-0.04-0.025
				c-0.085-0.053-0.169-0.107-0.252-0.161c-0.033-0.02-0.064-0.041-0.096-0.063c-0.075-0.048-0.151-0.097-0.225-0.147
				c-0.104-0.069-0.207-0.137-0.309-0.208c-0.113-0.077-0.226-0.155-0.337-0.233c-0.002-0.001-0.005-0.003-0.007-0.005
				c-0.028-0.02-0.057-0.04-0.085-0.06c-0.053-0.037-0.105-0.073-0.156-0.11c-0.18-0.129-0.358-0.26-0.535-0.393
				c-0.078-0.06-0.156-0.119-0.234-0.179h-0.001c-0.061-0.046-0.121-0.094-0.183-0.142c-0.129-0.101-0.257-0.203-0.384-0.307
				c-0.052-0.042-0.103-0.083-0.154-0.126c-0.065-0.054-0.13-0.108-0.196-0.163c-0.071-0.06-0.143-0.121-0.214-0.183
				c-0.039-0.034-0.078-0.068-0.117-0.102c-0.058-0.051-0.115-0.101-0.173-0.153c-1.08-0.961-2.071-2.018-2.94-3.184
				c-1.069-1.419-1.934-2.997-2.598-4.673c-0.003-0.007-0.006-0.014-0.008-0.021c-0.039-0.099-0.078-0.198-0.116-0.298
				c-0.001-0.005-0.004-0.01-0.006-0.015c-0.038-0.101-0.075-0.201-0.111-0.302c-0.006-0.017-0.012-0.035-0.019-0.052
				c-0.038-0.105-0.074-0.21-0.11-0.314c-0.003-0.008-0.006-0.016-0.008-0.024c-0.037-0.109-0.074-0.218-0.109-0.327
				c-0.001-0.004-0.003-0.008-0.004-0.012c-0.035-0.11-0.07-0.221-0.104-0.332c-0.035-0.115-0.069-0.23-0.103-0.346
				c-0.032-0.11-0.062-0.219-0.093-0.33c-0.005-0.019-0.011-0.039-0.016-0.06c-0.028-0.103-0.055-0.206-0.081-0.309
				c-0.491-1.916-0.743-3.91-0.762-5.905c-0.002-0.228-0.001-0.457,0.004-0.684c0.001-0.078,0.003-0.155,0.005-0.233
				c0.003-0.101,0.006-0.201,0.01-0.3c0.004-0.111,0.009-0.221,0.015-0.332c0.005-0.102,0.011-0.205,0.018-0.307
				c0.001-0.021,0.002-0.042,0.004-0.063c0.004-0.078,0.01-0.155,0.017-0.233c0.003-0.06,0.008-0.119,0.014-0.178
				c0.004-0.05,0.008-0.1,0.012-0.15c0.005-0.055,0.01-0.111,0.016-0.167c0.007-0.074,0.014-0.148,0.022-0.223
				c0-0.001,0-0.002,0-0.003c0.01-0.092,0.019-0.184,0.031-0.276c0.001-0.014,0.003-0.029,0.005-0.044
				c0.003-0.026,0.006-0.053,0.009-0.079c0.006-0.043,0.01-0.087,0.017-0.13c0.002-0.018,0.005-0.035,0.007-0.054
				c0.003-0.026,0.006-0.053,0.01-0.079c0.001-0.003,0.001-0.007,0.001-0.01c0.006-0.045,0.012-0.09,0.019-0.134
				c0.003-0.028,0.007-0.055,0.011-0.083c0.003-0.023,0.007-0.048,0.01-0.071c0-0.001,0-0.001,0-0.001
				c0.005-0.039,0.011-0.078,0.017-0.117c0.015-0.103,0.031-0.207,0.048-0.31c0.019-0.116,0.038-0.232,0.059-0.347
				c0.018-0.102,0.036-0.203,0.056-0.305c0.02-0.108,0.042-0.216,0.064-0.324c0.187-0.914,0.425-1.812,0.716-2.687
				c-0.62,1.086-1.21,2.194-1.76,3.322c-0.045,0.093-0.09,0.185-0.135,0.278c-0.044,0.089-0.086,0.178-0.128,0.268
				c-0.046,0.097-0.092,0.194-0.137,0.291c-0.044,0.094-0.088,0.187-0.131,0.281v0.001c-0.009,0.019-0.017,0.037-0.026,0.056
				c-0.008,0.019-0.017,0.037-0.025,0.056c-0.01,0.019-0.019,0.039-0.027,0.058c-0.028,0.061-0.056,0.123-0.083,0.185
				c-0.046,0.101-0.091,0.203-0.136,0.305c-0.003,0.006-0.005,0.011-0.008,0.017c-0.004,0.008-0.007,0.015-0.01,0.023
				c-0.015,0.032-0.029,0.064-0.042,0.096c-0.017,0.039-0.035,0.079-0.051,0.117c-0.005,0.01-0.009,0.02-0.013,0.031
				c-0.008,0.018-0.016,0.036-0.024,0.054c-0.008,0.018-0.016,0.035-0.024,0.053c-0.014,0.033-0.028,0.065-0.042,0.098
				c-0.008,0.019-0.016,0.037-0.024,0.056c-0.014,0.032-0.028,0.064-0.041,0.096c-0.034,0.079-0.068,0.158-0.101,0.238
				c-0.007,0.015-0.013,0.03-0.019,0.045c-0.023,0.053-0.045,0.108-0.067,0.162c-0.017,0.04-0.034,0.081-0.051,0.121v0.001
				c-0.03,0.071-0.06,0.144-0.089,0.216c-0.029,0.072-0.058,0.145-0.088,0.217c-0.051,0.125-0.101,0.25-0.148,0.375
				c-0.017,0.044-0.035,0.087-0.051,0.131c-0.047,0.121-0.094,0.242-0.139,0.364c-0.056,0.146-0.11,0.291-0.163,0.437
				c-0.054,0.146-0.107,0.292-0.159,0.439c-0.049,0.135-0.096,0.271-0.143,0.408c-0.012,0.035-0.024,0.07-0.035,0.105
				c-0.042,0.123-0.084,0.246-0.125,0.369c-0.049,0.147-0.097,0.295-0.144,0.443c-0.454,1.415-0.832,2.85-1.122,4.301
				c-0.023,0.114-0.045,0.227-0.067,0.341c-0.065,0.341-0.125,0.683-0.18,1.026c-0.001,0.004-0.001,0.008-0.002,0.012
				c-0.034,0.213-0.066,0.426-0.096,0.64c-0.034,0.24-0.065,0.481-0.094,0.722c-0.167,1.407-0.246,2.825-0.223,4.25
				c0.088,1.282,0.285,2.558,0.604,3.803c0.02,0.078,0.04,0.155,0.06,0.232c0.015,0.055,0.029,0.11,0.045,0.164
				c0.012,0.044,0.024,0.088,0.037,0.132c0.013,0.046,0.026,0.093,0.04,0.139c0.022,0.077,0.045,0.153,0.069,0.23
				c0.008,0.031,0.017,0.062,0.027,0.094c0.006,0.021,0.013,0.044,0.02,0.065c0.008,0.029,0.018,0.058,0.028,0.088
				c0.012,0.035,0.024,0.072,0.037,0.107c0.03,0.085,0.062,0.17,0.095,0.255c0.03,0.076,0.06,0.152,0.092,0.228
				c0.035,0.085,0.071,0.169,0.106,0.253c0.016,0.038,0.032,0.076,0.048,0.114c0.013,0.031,0.026,0.062,0.039,0.092
				c0.012,0.031,0.026,0.061,0.038,0.092c0.038,0.092,0.075,0.185,0.11,0.278c0.01,0.025,0.019,0.05,0.028,0.075
				c0.024,0.065,0.046,0.129,0.067,0.194h0.001c0.06,0.02,0.12,0.04,0.18,0.058c0.354,0.114,0.709,0.223,1.066,0.327
				c0.074,0.023,0.149,0.044,0.224,0.066c0.075,0.021,0.15,0.043,0.225,0.063c-0.001,0-0.002,0-0.003,0
				c1.419,0.39,2.879,0.604,4.301,0.98c0.443-0.08,0.679,0.584,0.241,0.786c-1.615,0.415-3.319,0.378-4.974,0.204
				c-1.966-0.257-3.877-0.72-5.738-1.341c-0.13-0.043-0.26-0.087-0.389-0.132c-0.129-0.044-0.259-0.09-0.388-0.137
				c-0.001,0-0.003-0.001-0.004-0.001c-0.128-0.046-0.255-0.092-0.382-0.139c-0.128-0.047-0.257-0.096-0.385-0.146
				c-0.128-0.049-0.255-0.098-0.383-0.15c-0.117-0.046-0.234-0.093-0.351-0.141c-0.017-0.007-0.033-0.013-0.05-0.02
				c-0.121-0.049-0.241-0.099-0.362-0.151c-0.126-0.053-0.253-0.107-0.379-0.162c-0.167-0.072-0.334-0.146-0.5-0.22
				c-0.078-0.035-0.157-0.07-0.235-0.106c-0.023-0.01-0.045-0.02-0.067-0.031c-0.094-0.042-0.186-0.085-0.279-0.129
				c-0.031-0.014-0.063-0.028-0.093-0.043c-0.101-0.047-0.203-0.095-0.303-0.143c-0.012-0.006-0.024-0.012-0.035-0.017
				c-0.121-0.058-0.241-0.115-0.361-0.175c-0.117-0.057-0.233-0.114-0.349-0.172c-0.012-0.006-0.025-0.012-0.037-0.018
				c-0.242-0.121-0.482-0.243-0.722-0.368c-2.172-1.128-4.271-2.413-6.305-3.762c-0.169-0.112-0.337-0.223-0.505-0.337
				c-0.167-0.112-0.335-0.225-0.502-0.339c-0.062-0.042-0.124-0.084-0.186-0.126c-0.098-0.067-0.195-0.133-0.292-0.2
				c-0.066-0.045-0.132-0.09-0.197-0.136c-0.031-0.02-0.061-0.042-0.092-0.063c-0.039-0.028-0.079-0.055-0.119-0.082
				c-0.115-0.079-0.228-0.158-0.341-0.237c-0.04-0.028-0.078-0.055-0.118-0.083c-0.056-0.04-0.113-0.078-0.169-0.118
				c-0.152-0.107-0.305-0.214-0.456-0.323c-2.725-1.943-5.318-4.113-7.302-6.83c-1.046-1.316-1.944-2.745-2.662-4.266
				c-0.793-1.548-1.491-3.163-1.895-4.849c-0.13,2.263,0.067,4.544,0.236,6.8c0.534,5.888,2.342,11.697,5.329,16.811
				c0.071,0.122,0.143,0.243,0.215,0.364c0.121,0.202,0.243,0.402,0.368,0.602c0.165,0.264,0.332,0.526,0.504,0.785
				c0.057,0.087,0.115,0.174,0.174,0.261c0.464,0.691,0.951,1.367,1.461,2.025c0.051,0.067,0.103,0.134,0.156,0.201
				c0.11,0.141,0.221,0.28,0.334,0.419c0.053,0.065,0.106,0.13,0.158,0.194c0.089,0.108,0.178,0.216,0.269,0.323
				c0.144,0.171,0.289,0.34,0.435,0.508c2.519,2.727,5.531,5.009,8.849,6.675c0.13,0.072,0.461,0.218,0.298,0.396
				c-0.1,0.097-0.302,0.104-0.423,0.112c-0.331,0.024-0.662,0.008-0.992-0.025c-4.274-0.754-7.84-3.138-10.715-6.348h-0.001
				c-0.014-0.016-0.028-0.031-0.042-0.047c-0.047-0.054-0.094-0.107-0.142-0.161c-0.04-0.045-0.08-0.091-0.119-0.137
				c-0.184-0.212-0.364-0.427-0.54-0.645c-0.056-0.067-0.11-0.135-0.164-0.203c-0.055-0.068-0.108-0.137-0.162-0.205
				c-0.053-0.069-0.107-0.137-0.16-0.207c-0.053-0.069-0.106-0.139-0.159-0.209c-0.009-0.012-0.019-0.025-0.028-0.038
				c-0.201-0.267-0.398-0.538-0.59-0.813c-0.051-0.072-0.101-0.144-0.151-0.216c-0.039-0.056-0.076-0.112-0.114-0.167
				c-0.061-0.089-0.121-0.18-0.182-0.27h-0.001c-0.082-0.015-0.162-0.031-0.242-0.048c-1.207-0.256-2.379-0.727-3.514-1.194
				c-4.842-2.075-9.307-5.039-13.045-8.754c-1.085-1.08-2.133-2.22-3.069-3.439c3.429,10.819,9.776,21.107,19.577,27.127
				c7.921,4.64,17.736,5.314,26.628,4.204c3.405-0.473,6.834-1.241,10.152-2.085c0.117-0.033,0.234-0.065,0.351-0.098h0.001
				c0.064-0.018,0.128-0.036,0.192-0.055c0.084-0.024,0.168-0.049,0.252-0.073c0.107-0.031,0.216-0.063,0.323-0.096
				c0.017-0.005,0.035-0.01,0.052-0.016c0.065-0.019,0.128-0.039,0.193-0.058c0.064-0.021,0.13-0.041,0.195-0.062
				c0.065-0.02,0.129-0.041,0.193-0.063c0.043-0.013,0.085-0.028,0.128-0.042c0.406-0.136,0.808-0.282,1.203-0.446
				c0.196-0.092,0.445-0.185,0.647-0.277c0.147-0.063,0.318-0.032,0.411,0.106c0.1,0.146,0.06,0.35-0.085,0.449
				c-0.585,0.398-1.189,0.776-1.799,1.135c-0.045,0.027-0.091,0.054-0.136,0.081c-0.049,0.284-0.149,0.569-0.237,0.806
				c-0.368,0.96-0.853,1.871-1.342,2.774c-1.104,1.952-2.449,3.785-4.102,5.31c-1.722,1.61-3.782,3.017-6.049,3.701
				c2.546,0.167,5.103,0.011,7.639-0.227c5.201-0.601,10.246-2.141,15.086-4.101c3.65-1.436,7.197-3.129,10.584-5.112
				c4.261-2.421,8.206-5.423,12.425-7.864c0.3-0.183,1.111-0.608,1.839-0.872c1.641-1.028,3.411-1.845,5.32-2.374
				c0.758-0.215,1.525-0.41,2.311-0.478c0.255-0.031,0.361,0.348,0.114,0.439c-1.225,0.484-2.454,0.986-3.549,1.727
				c-4.698,3.418-8.647,7.822-11.876,12.588c-0.672,1.021-1.32,2.058-1.945,3.109c0.589-0.581,1.197-1.143,1.818-1.688
				C197.222,168.233,204.564,165.188,212.037,163.559z M221.621,235.503c0.117-2.43-0.715-4.777-1.778-6.927
				c-1.104-2.216-2.752-4.111-4.572-5.77c-4.882-4.186-10.616-6.711-16.897-7.951c-4.256-0.813-8.696-1.194-13.019-0.693
				c-0.117,0.021-0.234,0.042-0.351,0.064c-2.749,0.517-5.944,1.367-8.636,2.644c-2.045,1.137-3.856,2.671-4.949,4.772
				c-0.484,1.054-0.774,2.223-0.785,3.386c0.305,1.368,1.096,2.882,2.501,4.557c0.003,0.004,0.008,0.009,0.012,0.013
				c3.782,4.329,8.877,7.242,13.863,9.977c6.527,3.41,13.567,6.733,21.106,6.391c2.618-0.069,5.104-0.552,7.242-1.446
				C218.724,242.748,221.328,239.357,221.621,235.503z M187.294,278.397c1.094-0.403,2.154-0.844,3.22-1.267
				c-6.706-0.957-13.394-2.041-20.072-3.137c-2.307-0.413-4.6-0.888-6.878-1.426c-1.69,0.45-3.469,0.579-5.206,0.716
				c-4.897,0.233-9.725-0.414-14.537-1.198c-5.863-1.114-11.908-2.821-17.877-1.439c-1.205,0.327-3.285,0.869-3.98,1.937
				c1.039,0.689,2.366,0.681,3.57,0.668c1.543,0.038,3.099-0.015,4.623,0.257c0.046,0.009,0.093,0.018,0.14,0.027
				c0.6-0.842,1.688-1.391,2.775-1.495c0.878-0.122,1.754-0.096,2.636-0.061c1.602,0.073,3.137,0.067,4.692,0.149
				c1.578,0.138,3.151,0.558,4.564,1.28c0.371,0.201,0.247,0.783-0.181,0.799c-1.284,0.004-2.554,0.111-3.817,0.344
				c-1.567,0.2-3.15,0.184-4.726,0.224c-1.216,0.08-2.598-0.15-3.723,0.381c0.522,1.044,3.751,2.146,4.901,2.764
				c1.155,0.506,2.324,1.028,3.578,1.23c2.367,0.368,4.86-0.113,6.892-1.386c0.43-0.272,1.13-0.238,1.256,0.34
				c0.221,1.021-1.17,1.928-1.922,2.388c-0.072,0.041-0.146,0.081-0.219,0.119c1.92,0.79,3.775,1.737,5.586,2.749
				c1.131,0.659,2.259,1.332,3.435,1.912c0.491,0.23,0.976,0.479,1.475,0.693c2.807-0.176,5.609-0.478,8.396-0.863
				C173.327,284.201,180.396,281.044,187.294,278.397z M164.709,219.061c0.119-0.287,0.252-0.572,0.4-0.852
				c-0.424-0.421-0.936-0.719-1.391-1.107c-0.962-0.879-2.016-1.651-3.12-2.341c-4.372-2.687-9.413-3.889-14.423-4.712
				c-3.368-0.511-6.795-0.519-10.175-0.127c-0.053,0-0.107,0.002-0.164,0.006c0.021,0.31,0.028,0.623,0.021,0.94
				c-0.043,0.451-0.113,0.886-0.208,1.306c0.748-0.15,1.505-0.254,2.262-0.341c5.957-0.857,12.001,0.228,17.595,2.323
				C158.739,215.419,161.951,216.93,164.709,219.061z M147.937,132.487c0.125-0.645,0.271-1.292,0.436-1.938
				c-1.154,0.774-2.296,1.567-3.424,2.38C145.94,132.754,146.937,132.609,147.937,132.487z M148.253,143.273
				c-0.825-2.403-1.011-5.173-0.721-8.061c-2.402,0.278-4.79,0.659-7.157,1.165c-0.789,0.626-1.567,1.268-2.331,1.926
				c2.763,1.929,5.636,3.71,8.671,5.174C147.227,143.404,147.74,143.336,148.253,143.273z M137.506,285.284
				c-0.199-0.088-0.399-0.176-0.599-0.263c-1.25-0.491-3.805-1.855-5.002-0.936c0.098,0.73,0.872,1.061,1.33,1.585
				C134.644,285.424,136.073,285.306,137.506,285.284z M119.344,216.095c9.559,0.084,15.492-5.276,6.642-12.812
				c-3.88-2.871-8.8-4.191-13.585-4.302c-3.419,0.121-8.91,0.566-10.561,4.044c-1.158,3.183,1.023,6.452,3.537,8.28
				C109.421,214.251,114.322,216.043,119.344,216.095z M124.718,177.73c-0.924-0.467-1.86,0.327-2.739,0.59
				c-1.775,0.781-3.541,1.863-4.572,3.553c0.242,0.127,0.517,0.169,0.788,0.165C120.559,181.676,123.693,179.956,124.718,177.73z"/>
		</g>
		<g>
			<path style="fill:#FFFFFF;" d="M274.644,188.524c-0.078-0.058-0.104-0.186-0.038-0.264c0.401-0.472,0.802-0.944,1.2-1.418
				c0.752-0.923,1.46-1.882,2.214-2.804c2.62-3.249,5.214-6.519,7.899-9.715c3.307-3.912,6.638-7.813,10.472-11.218
				c2.012-1.748,4.176-3.308,6.393-4.782c0.568-0.495,1.28,0.394,0.632,0.839c-0.586,0.528-1.216,1.061-1.792,1.589
				c-6.711,6.068-12.941,12.804-19.139,19.399c-1.856,2.009-3.684,4.046-5.561,6.036c-0.705,0.737-1.355,1.523-2.017,2.299
				c-0.04,0.048-0.097,0.075-0.155,0.075C274.716,188.561,274.678,188.549,274.644,188.524z"/>
			<path style="fill:#FFFFFF;" d="M277.349,206.725c3.789-1.882,7.865-3.087,11.912-4.274c5.935-1.708,12.081-2.908,18.281-2.682
				c0.383,0.032,0.421,0.632,0.017,0.688c-3.123,0.428-6.23,0.966-9.308,1.651c-4.964,1.042-9.911,2.093-14.826,3.318
				c-1.527,0.369-3.041,0.778-4.556,1.195c-0.485,0.137-0.989,0.228-1.465,0.386C277.272,207.007,277.2,206.791,277.349,206.725z"/>
			<path style="fill:#FFFFFF;" d="M172.241,129.378c-0.113-0.177-0.012-0.392,0.171-0.451c0.642-0.407,1.352-0.695,2.049-0.994
				c2.503-1.04,5.065-1.931,7.609-2.866c6.996-2.634,14.249-4.525,21.595-5.888c7.392-1.384,14.935-1.743,22.442-1.545
				c8.973,0.2,17.993,1.306,26.549,4.097c2.514,0.791,5.031,1.581,7.483,2.547c0.11,0.043,0.178,0.157,0.153,0.275
				c-0.027,0.122-0.159,0.216-0.284,0.182c-3.297-0.949-6.616-1.816-10.004-2.38c-17.962-3.483-36.545-2.864-54.395,0.98
				c-6.607,1.298-13.056,3.255-19.528,5.086c-1.127,0.331-2.267,0.625-3.376,1.014c-0.062,0.05-0.139,0.077-0.214,0.077
				C172.394,129.514,172.3,129.471,172.241,129.378z"/>
			<path style="fill:#FFFFFF;" d="M109.539,199.645c-0.316-0.374,1.864-1.386,2.175-1.578c2.257-1.256,4.63-1.782,7.199-1.844
				c1.483-0.052,2.995,0.031,4.436,0.409c1.156,0.379,0.101,0.563-0.466,0.608c-2.169,0.176-4.34,0.346-6.489,0.709
				c-1.231,0.219-2.481,0.336-3.699,0.626c-0.708,0.183-1.389,0.454-2.046,0.772c-0.278,0.13-0.562,0.246-0.842,0.374
				c-0.028,0.013-0.059,0.019-0.089,0.019C109.649,199.741,109.58,199.707,109.539,199.645z"/>
			<path style="fill:#FFFFFF;" d="M143.671,211.698c-0.019-0.103,0.043-0.211,0.144-0.241c0.534-0.18,1.088-0.278,1.643-0.379
				c1.188-0.226,2.404-0.288,3.611-0.229c0.721,0.053,1.462,0.1,2.15,0.333c0.114,0.047,0.22,0.159,0.182,0.284
				c-0.096,0.241-0.423,0.214-0.638,0.236c-1.578,0.067-3.235,0.089-4.793,0.085c-0.529-0.01-1.056,0.016-1.583,0.056
				c-0.071-0.009-0.158,0.003-0.246,0.014c-0.066,0.009-0.134,0.017-0.196,0.017C143.819,211.874,143.712,211.839,143.671,211.698z"
				/>
			<path style="fill:#FFFFFF;" d="M178.08,214.284c-0.051-0.109-0.016-0.253,0.09-0.317c0.357-0.215,0.723-0.409,1.096-0.594
				c0.861-0.427,1.714-0.874,2.615-1.213c3.468-1.413,7.317-2.091,11.044-2.055c1.733,0.05,3.495,0.068,5.187,0.474
				c0.197,0.053,0.468,0.099,0.57,0.3c0.053,0.07,0.033,0.187-0.046,0.226c-0.215,0.143-0.482,0.14-0.743,0.138
				c-0.117-0.001-0.233-0.003-0.343,0.01c-4.553,0.071-9.077,0.664-13.514,1.63c-1.269,0.27-2.486,0.609-3.734,0.939
				c-0.645,0.182-1.274,0.413-1.919,0.593c-0.025,0.007-0.049,0.01-0.074,0.01C178.214,214.425,178.123,214.376,178.08,214.284z"/>
		</g>
	</g>
	<g>
		<g style="opacity:0.45;">
			<path style="fill:#4079EA;" d="M461.773,207.346c0.002-0.002,0.003-0.004,0.005-0.006c-0.015-0.157-0.036-0.312-0.052-0.468
				c-0.154-1.521-0.318-3.039-0.503-4.551c-3.661,5.593-7.887,10.802-12.734,15.424c-6.379,6.177-13.391,11.727-21.089,16.173
				c-7.834,4.482-16.508,7.584-25.46,8.811c-4.293,0.601-8.635,0.599-12.953,0.308c-3.618-0.237-7.243-0.547-10.805-1.247
				c-6.31-1.236-12.529-2.908-18.637-4.908c-4.206-1.356-8.403-2.766-12.713-3.756c-17.805-4.245-36.915-4.3-54.184,2.21
				c-8.126,2.876-15.897,6.648-23.541,10.609c-17.034,9.031-31.808,19.015-51.978,18.919c-7.043-0.001-14.029-1.301-20.714-3.478
				c-7.841-2.734-15.33-6.441-23.352-8.666c-4.243-1.204-8.563-2.176-12.955-2.624c-14.413-1.346-28.757,1.56-42.82,4.394
				c-17.823,3.492-36.853,6.71-54.483,0.665c-7.657-2.536-14.71-6.768-20.709-12.144c-1.333-1.169-2.652-2.381-3.623-3.88
				c-0.383-0.605-0.753-1.217-1.113-1.836l0,0c0,0,0,0,0,0c0.001,0.018,0.002,0.036,0.003,0.054
				c0.064,1.571,0.151,3.136,0.249,4.699c0.019,0.294,0.035,0.588,0.055,0.882c0.012,0.18,0.021,0.361,0.034,0.541
				c0.003,0.003,0.006,0.006,0.009,0.009C45.388,354.029,137.495,441.332,250,441.332c117.536,0,212.819-95.283,212.819-212.818
				C462.819,221.369,462.461,214.309,461.773,207.346z"/>
			<path style="fill:#4079EA;" d="M130.087,108.691c0.479,1.489,1.261,4.662,2.852,5.242c0.133,0.048,0.272,0.072,0.41,0.072
				c0.503,0,0.994-0.307,1.195-0.787c0.419-1.087,0.065-2.283,0.03-3.41c-0.503-5.379,0.794-10.463,1.492-15.833
				c0.251-2.153,0.47-4.543-0.682-6.484c-0.602-1.114-2.007-1.546-3.163-1.081c-1.842,0.699-2.685,2.699-3.139,4.479
				c-0.956,4.319-0.921,8.885,0.017,13.205C129.406,105.629,129.609,107.19,130.087,108.691z"/>
			<path style="fill:#4079EA;" d="M141.499,123.52c0.213,0.071,0.402,0.104,0.572,0.104c2.02,0,1.087-4.721,1.604-6.173
				c0.492-4.127,1.684-8.347,3.237-12.226c1.71-4.7,4.986-8.784,6.156-13.668c0.876-6.195-5.161-6.013-7.523-1.391
				c-4.399,7.29-6.569,15.926-6.318,24.427C139.507,117.302,139.352,121.619,141.499,123.52z"/>
			<path style="fill:#4079EA;" d="M376.191,228.111c0.357,0.095,0.724,0.125,1.093,0.125c0.493,0,0.99-0.053,1.478-0.079
				c1.686-0.132,3.355-0.389,5.014-0.712c3.063-0.608,6.37-1.329,9.362-2.409c3.27-1.21,6.46-2.659,9.481-4.4
				c3.865-1.87,7.406-4.41,10.309-7.581c1.781-1.992,3.932-4.288,4.441-6.988c0.38-2.228-0.665-4.511-3.031-4.937
				c-1.541-0.303-3.078,0.253-4.45,0.916c-5.522,2.923-9.434,7.942-14.221,11.852c-4.988,4.24-10.408,7.889-16.274,10.88
				c-0.768,0.368-1.549,0.705-2.355,0.978c-0.437,0.156-0.913,0.314-1.262,0.632C375.128,226.94,375.392,227.905,376.191,228.111z"
				/>
			<path style="fill:#4079EA;" d="M335.608,210.205c0.016,0,0.032,0,0.048-0.001c0.082-0.005,0.167-0.021,0.255-0.048
				c1.82-0.544,4.64-5.43,5.501-6.968c4.311-6.685,9.242-18.52,8.032-26.52c-0.281-1.798-0.898-3.652-2.211-4.964
				c-2.163-2.17-5.285-1.443-7.025,0.849c-2.171,2.699-2.404,6.317-2.315,9.646c0.105,3.137,0.231,6.277,0.118,9.416
				c-0.159,4.475-0.605,8.945-1.914,13.252c-0.302,1.011-0.73,1.974-1.156,2.939c-0.229,0.586-0.559,1.29-0.216,1.895
				C334.909,210.003,335.253,210.205,335.608,210.205z"/>
			<path style="fill:#4079EA;" d="M342.598,216.311c-0.318,0.412-0.663,0.831-0.808,1.34c-0.183,0.645,0.368,1.294,1.006,1.294
				c0.065,0,0.131-0.007,0.197-0.021c0.042-0.009,0.083-0.02,0.124-0.032c0.386-0.115,0.726-0.354,1.081-0.538
				c1.212-0.705,2.385-1.476,3.569-2.226c6.642-4.329,12.441-9.908,17.558-15.938c2.958-3.692,6.457-8.516,6.522-13.411
				c-0.014-1.433-0.541-2.973-1.838-3.725c-2.234-1.398-4.765,0.182-6.385,1.809c-4.066,4.09-6.573,9.396-9.208,14.452
				c-1.111,2.193-2.217,4.393-3.639,6.407c-1.757,2.649-3.635,5.213-5.672,7.654C344.273,214.356,343.406,215.31,342.598,216.311z"
				/>
			<path style="fill:#4079EA;" d="M264.55,93.861c1.082-0.001,2.292-1.688,3.025-2.296c0.557-0.527,1.1-1.07,1.661-1.592
				c2.796-2.596,5.722-4.842,8.822-7.163c2.584-1.965,5.322-3.777,7.58-6.129c0.62-0.662,1.211-1.372,1.614-2.19
				c1.423-2.758-0.282-5.555-3.449-5.058c-3.48,0.624-7.833,4.724-10.191,7.314c-3.412,3.342-6.277,7.214-8.501,11.44
				c-0.557,1.17-2.281,4.079-1.418,5.227C263.96,93.731,264.249,93.861,264.55,93.861z"/>
			<path style="fill:#4079EA;" d="M286.386,104.44c0.582,0.013,1.165,0.018,1.749,0.018c2.217,0,4.449-0.083,6.685-0.166
				c3.606-0.134,7.225-0.268,10.818-0.053c6.847,0.062,14.067,0.7,20.579-1.805c4.538-1.665,5.357-6.576,0.86-8.898
				c-4.839-2.417-10.6-2.177-15.854-1.654c-5.427,0.715-10.637,2.59-15.564,4.93C293.879,98.023,282.387,101.572,286.386,104.44z"/>
			<path style="fill:#4079EA;" d="M88.259,231.043c0.311,0.202,0.666,0.297,1.002,0.297c0.868,0,1.605-0.633,1.114-1.679
				c-0.701-1.247-1.667-2.333-2.428-3.547c-2.853-4.221-4.967-8.883-6.823-13.612c-1.176-2.999-2.145-6.071-3.157-9.127
				c-1.546-4.085-3.838-13.497-9.876-10.819c-4.668,3.48-1.243,13.653,1.04,17.906C73.331,218.974,79.849,226.506,88.259,231.043z"
				/>
			<path style="fill:#4079EA;" d="M67.155,236.354c5.844,4.66,14.032,7.627,21.548,7.477c1.021,0.096,2.048,0.152,3.075,0.152
				c1.005,0,2.009-0.054,3.008-0.177c0.72-0.096,1.45-0.203,2.131-0.463c1.075-0.392,1.427-1.622,0.379-2.272
				c-0.825-0.469-1.785-0.603-2.703-0.789c-5.157-1.087-10.06-3.462-14.474-6.32c-2.51-1.65-4.863-3.536-7.332-5.246
				c-1.363-0.927-2.774-1.829-4.347-2.355c-3.052-1.15-6.727,0.428-5.762,4.12C63.36,232.92,65.309,234.733,67.155,236.354z"/>
		</g>
		<g style="opacity:0.6489;">
			<g>
				<path style="fill:#FFFFFF;" d="M108.809,299.332c-3.799-2.201-0.735-8.484,3.272-6.249c3.185,1.894,1.644,6.838-1.399,6.838
					C110.105,299.922,109.473,299.743,108.809,299.332z"/>
				<path style="fill:#FFFFFF;" d="M325.993,352.712c-2.648-0.039-4.155-3.18-2.852-5.389c0.978-2.097,5.342-4.046,6.46-1.213
					c2.564,2.439-0.208,6.612-3.335,6.612C326.176,352.723,326.084,352.719,325.993,352.712z"/>
				<path style="fill:#FFFFFF;" d="M324.887,312.425c-2.571-0.109-3.891-3.014-2.99-5.247c0.531-1.382,1.67-2.738,3.219-2.908
					c2.007-0.477,4.167,1.059,4.453,3.086c0.402,2.689-1.874,5.072-4.525,5.072C324.992,312.427,324.94,312.427,324.887,312.425z"/>
				<path style="fill:#FFFFFF;" d="M206.96,316.563c-4.574-0.572-3.39-7.884,1.137-6.991c4.089,0.824,3.218,7.011-0.736,7.011
					C207.231,316.583,207.097,316.577,206.96,316.563z"/>
				<path style="fill:#FFFFFF;" d="M88.04,333.119c-7.182-2.047-9.827-10.507-9.849-17.255c0.033-9.601,7.027-17.57,16.983-16.698
					c3.932,0.264,7.641,3.475,7.223,7.63c-0.182,3.116-2.01,5.76-2.999,8.644c-1.117,3.311-0.718,6.87-1.296,10.277
					c-0.308,4.144-3.777,7.778-7.823,7.778C89.547,333.495,88.796,333.376,88.04,333.119z"/>
				<path style="fill:#FFFFFF;" d="M110.68,324.309c-2.882-0.486-4.335-2.849-4.721-5.569c-0.248-1.845,0.532-3.805,1.678-5.229
					c3.062-3.585,8.368-2.027,9.553,2.398c0.319,1.008,0.419,2.081,0.267,3.13c-0.39,2.842-2.968,5.357-5.851,5.358
					C111.299,324.396,110.99,324.368,110.68,324.309z"/>
				<path style="fill:#FFFFFF;" d="M156.016,336.833c-8.864-2.055-6.335-13.867,2.422-13.228c3.495,0.187,6.439,3.227,6.66,6.696
					c0.099,3.913-3.671,6.744-7.375,6.744C157.147,337.044,156.573,336.976,156.016,336.833z"/>
				<path style="fill:#FFFFFF;" d="M154.719,380.612c-5.742-0.75-4.556-9.467,0.746-9.885c3.354-0.124,4.877,2.421,4.777,4.967
					c-0.097,2.486-1.743,4.971-4.742,4.972C155.249,380.665,154.989,380.648,154.719,380.612z"/>
				<path style="fill:#FFFFFF;" d="M215.003,375.167c-1.823-0.391-3.527-1.214-4.92-2.464c-0.691-0.62-1.293-1.324-1.809-2.096
					c-0.523-0.783-0.917-1.65-1.213-2.542c-0.578-1.74-0.643-3.654-0.243-5.439c0.376-1.684,1.18-3.269,2.337-4.549
					c0.057-0.269,0.178-0.527,0.362-0.719c0.062-0.064,0.126-0.128,0.189-0.191c0.012-0.012,0.024-0.023,0.036-0.035
					c1.122-1.081,2.474-1.9,3.947-2.408c0.226-0.078,0.456-0.143,0.582-0.177c0.035-0.009,0.07-0.019,0.105-0.028
					c0.376-0.098,0.753-0.184,1.139-0.238c0.575-0.083,1.144-0.118,1.725-0.118c1.216,0,2.449,0.242,3.585,0.671
					c0.721,0.272,1.408,0.616,2.057,1.032c0.603,0.387,1.15,0.842,1.663,1.34c0.751,0.751,1.388,1.588,1.902,2.521
					c0.401,0.728,0.695,1.506,0.915,2.307c0.245,0.955,0.367,1.922,0.359,2.91c-0.007,0.842-0.135,1.674-0.339,2.489
					c-0.426,1.597-1.19,3.107-2.296,4.345c-1.218,1.362-2.76,2.429-4.495,3.021c-1.122,0.383-2.315,0.588-3.507,0.588
					C216.385,375.384,215.686,375.313,215.003,375.167z"/>
				<path style="fill:#FFFFFF;" d="M231.09,295.357c-0.987-0.362-1.849-1.041-2.481-1.875c-2.072-2.264-1.729-6.093,0.377-8.222
					c3.933-3.723,8.204-1.434,8.766,3.627c0.426,3.138-1.896,6.779-5.055,6.779C232.18,295.666,231.642,295.569,231.09,295.357z"/>
				<path style="fill:#FFFFFF;" d="M266.958,364.663c-5.829-0.37-5.43-10.537,0.603-9.688c6.066,0.092,5.378,9.696-0.297,9.697
					C267.164,364.672,267.062,364.669,266.958,364.663z"/>
				<path style="fill:#FFFFFF;" d="M237.799,407.25c-2.505-0.147-4.566-2.359-4.148-4.906c0.133-0.842,0.487-1.65,1.046-2.296
					c0.376-0.714,0.913-1.326,1.551-1.829c0.909-0.717,1.988-1.226,3.147-1.344c2.055-0.197,4.1,1.187,4.68,3.168
					c0.546,1.806,0.262,3.979-1.066,5.38c-1.189,1.211-2.939,1.852-4.635,1.852C238.181,407.275,237.989,407.267,237.799,407.25z"/>
				<path style="fill:#FFFFFF;" d="M281.482,429.693c-4.046-0.252-6.231-4.751-5.204-8.389c0.738-3.28,3.138-5.969,5.932-7.723
					c3.126-2.037,6.855-2.642,10.518-2.779c2.712-0.07,4.491-0.483,6.462-2.465c2.104-1.853,3.045-4.841,5.574-6.213
					c2.254-1.21,5.223-0.527,6.921,1.326c2.447,2.829,2.789,6.973,1.964,10.501c-1.057,4.617-4.564,8.351-8.863,10.197
					c-3.279,1.494-6.962,1.441-10.402,2.359c-4.165,0.91-8.123,3.195-12.438,3.195C281.79,429.702,281.636,429.699,281.482,429.693z
					"/>
				<path style="fill:#FFFFFF;" d="M357.81,376.855c-9.378-4.757-2.106-19.131,7.381-15.435c8.784,3.991,3.807,16.147-4.066,16.147
					C360.063,377.567,358.95,377.346,357.81,376.855z"/>
				<path style="fill:#FFFFFF;" d="M409.078,298.981c-0.808-0.428-1.53-1.036-2.113-1.738c-0.577-0.695-0.995-1.49-1.287-2.341
					c-0.34-0.991-0.419-2.053-0.275-3.085c-0.06-0.258-0.058-0.528,0.003-0.792c0.327-1.416,1.041-2.73,2.107-3.727
					c1.397-1.307,3.303-2.072,5.226-1.99c0.861,0.036,1.701,0.201,2.503,0.522c0.943,0.378,1.811,0.962,2.514,1.695
					c1.055,1.102,1.766,2.525,1.974,4.04c0.13,0.949,0.08,1.923-0.162,2.851c-0.226,0.863-0.613,1.657-1.116,2.391
					c-0.441,0.643-1.023,1.21-1.653,1.666c-0.699,0.505-1.477,0.877-2.304,1.117c-0.628,0.182-1.275,0.269-1.922,0.269
					C411.363,299.858,410.153,299.551,409.078,298.981z"/>
			</g>
		</g>
	</g>
</g>
</svg>
